<svg width="24" height="24" viewBox="0 0 24 24" fill="none" xmlns="http://www.w3.org/2000/svg">
<g id="SEMIOS logo&#229;&#141;&#149;&#228;&#184;&#170;" clip-path="url(#clip0_893_5074)">
<g id="Clip path group">
<mask id="mask0_893_5074" style="mask-type:luminance" maskUnits="userSpaceOnUse" x="0" y="0" width="24" height="24">
<g id="clip0_118_2354">
<path id="Vector" d="M23.52 0H0V24H23.52V0Z" fill="white"/>
</g>
</mask>
<g mask="url(#mask0_893_5074)">
<g id="Group">
<path id="Vector_2" fill-rule="evenodd" clip-rule="evenodd" d="M10.1074 4.44102L10.4476 4.69498C12.5686 6.90499 13.4272 9.77303 13.6186 12.5243C13.7262 14.0718 13.6218 15.5714 13.4176 16.8768C13.4083 16.8822 13.3992 16.8877 13.39 16.8932C11.9045 17.7907 10.6748 18.2765 9.70261 18.4585C8.7278 18.641 8.04767 18.5129 7.61506 18.2342C7.19361 17.9629 6.94583 17.5094 6.90956 16.892C6.87278 16.266 7.0575 15.483 7.50471 14.623C9.17125 11.4181 9.47242 8.80369 8.78518 6.51829C8.26079 4.77445 7.17204 3.26194 5.75821 1.84903C7.3018 2.56314 8.75833 3.4339 10.1074 4.44102ZM4.37267 1.57747C4.52036 4.06728 5.04117 6.45558 5.87959 8.6879L6.03486 9.10132L5.75052 9.43921C3.44112 12.1835 1.86603 14.9941 1.16562 17.3716C0.450715 19.7982 0.704971 21.5287 1.63411 22.4329C2.46425 23.2408 3.93531 23.4962 5.98431 22.9732C8.00341 22.4576 10.3992 21.223 12.8194 19.3642L12.8665 19.3279C12.9985 18.8944 13.1263 18.3986 13.2396 17.8547C11.9354 18.5879 10.8007 19.0207 9.84151 19.2004C8.7547 19.4039 7.85713 19.2878 7.20649 18.8688C6.54469 18.4428 6.20368 17.7456 6.15613 16.9363C6.10912 16.1358 6.34559 15.2162 6.8351 14.2748C8.43906 11.1903 8.67766 8.78156 8.06242 6.73564C7.49105 4.83556 6.16695 3.19028 4.37267 1.57747ZM14.1002 17.3728C13.9751 18.0865 13.8226 18.7378 13.6607 19.3033L13.743 19.3675C15.5279 20.7587 17.5108 21.907 19.6421 22.763C19.112 20.7796 18.2099 19.161 17.1767 18.1858C16.6218 17.662 16.0434 17.3366 15.477 17.2223C15.0234 17.1308 14.5616 17.1709 14.1002 17.3728ZM19.6938 20.6216C19.4122 18.5927 18.8812 16.6441 18.1328 14.8075L17.965 14.3954L18.2443 14.049C20.3952 11.3811 21.8448 8.68337 22.47 6.40912C23.1072 4.09158 22.8388 2.44256 21.9391 1.56712C21.124 0.77384 19.6914 0.512682 17.6958 1.00016C15.7651 1.47178 13.4778 2.612 11.1482 4.3383C13.3153 6.69124 14.177 9.67595 14.3714 12.472C14.4708 13.8988 14.397 15.2851 14.2308 16.5277C14.6933 16.4009 15.1627 16.389 15.6263 16.4825C16.3666 16.6319 17.0672 17.0446 17.6947 17.6369C18.4716 18.3702 19.1581 19.3986 19.6938 20.6216ZM20.6672 23.1481C20.6762 23.4148 20.681 23.6824 20.6816 23.951C20.4275 23.8654 20.1752 23.7756 19.9248 23.682C17.5123 22.7802 15.2753 21.5188 13.2791 19.9627C8.33053 23.7635 3.32987 25.1362 1.10776 22.9738C-1.37478 20.5579 0.458931 14.5552 5.17305 8.95326C4.23535 6.45659 3.68316 3.77131 3.58897 0.96994C3.58001 0.7033 3.57518 0.435607 3.57458 0.166927C3.82869 0.252698 4.08098 0.34242 4.33139 0.436016C6.57681 1.27532 8.6702 2.42627 10.5589 3.83623C15.4201 0.188745 20.283 -1.0976 22.4654 1.02622C24.8707 3.36686 23.2242 9.07469 18.8318 14.5228C19.9222 17.1989 20.5649 20.105 20.6672 23.1481Z" fill="#8C91FF"/>
</g>
</g>
</g>
</g>
<defs>
<clipPath id="clip0_893_5074">
<rect width="23.52" height="24" fill="white"/>
</clipPath>
</defs>
</svg>
