<?xml version="1.0" standalone="no"?>
<!DOCTYPE svg PUBLIC "-//W3C//DTD SVG 1.1//EN" "http://www.w3.org/Graphics/SVG/1.1/DTD/svg11.dtd" >
<svg xmlns="http://www.w3.org/2000/svg">
  <metadata>Created by iconfont</metadata>
  <defs>
  <font id="iconfont" horiz-adv-x="1024">
    <font-face
      font-family="iconfont"
      font-weight="400"
      font-stretch="normal"
      units-per-em="1024"
      ascent="896"
      descent="-128"
    />
      <missing-glyph />
      
      <glyph glyph-name="file" unicode="&#58920;" d="M579.8 800c5.5 0.3 11.2-0.9 16.3-3.8l1.2-0.7c2.1-1.3 4-2.9 5.8-4.6l202.3-202.4 38.2-38.3c0.9-0.9 1.8-1.9 2.6-2.9l0.4-0.5c4.6-6 6.5-13.1 6.2-19.9V59c0-24.2-9.6-47.4-26.7-64.4a91.53 91.53 0 0 0-64.5-26.6H262.3c-24.2 0-47.4 9.6-64.4 26.7-17.1 17.1-26.7 40.3-26.7 64.4V708.8c0 24.2 9.6 47.4 26.7 64.4C215 790.4 238.1 800 262.3 800h317.5z m-29.7-62H262.3c-3.8 0-7.6-0.8-11.2-2.2-3.5-1.5-6.8-3.6-9.5-6.3-2.7-2.7-4.9-5.9-6.3-9.5-1.5-3.5-2.2-7.3-2.2-11.2v-649.7c0-16.1 13.1-29.2 29.2-29.2h499.3c7.7 0 15.2 3.1 20.6 8.5 5.5 5.5 8.5 12.9 8.5 20.6l-0.1 438.2H641.3c-23.2 0-45.6 8.9-62.5 24.8s-27.1 37.8-28.5 61l-0.2 5.4V738z m127.3-448.5c4 0 7.9-0.8 11.5-2.3 3.6-1.5 7-3.7 9.8-6.5 2.8-2.8 5-6.1 6.5-9.8 1.5-3.7 2.3-7.6 2.3-11.5v-1.8c0-3.9-0.8-7.9-2.3-11.5-1.5-3.7-3.7-7-6.5-9.8-2.8-2.8-6.1-5-9.8-6.5-3.7-1.5-7.6-2.3-11.5-2.3H346.5c-3.9 0-7.9 0.8-11.5 2.3-3.6 1.5-7 3.7-9.8 6.5-2.8 2.8-5 6.1-6.5 9.8-1.5 3.6-2.3 7.6-2.3 11.5v1.8c0 3.9 0.8 7.9 2.3 11.5 1.5 3.6 3.7 7 6.5 9.8 2.8 2.8 6.1 5 9.8 6.5 3.6 1.5 7.6 2.3 11.5 2.3h330.9z m0 124c4 0 7.9-0.8 11.5-2.3 3.6-1.5 7-3.7 9.8-6.5 2.8-2.8 5-6.1 6.5-9.8 1.5-3.6 2.3-7.6 2.3-11.5v-1.8c0-3.9-0.8-7.9-2.3-11.5-1.5-3.6-3.7-7-6.5-9.8-2.8-2.8-6.1-5-9.8-6.5-3.7-1.5-7.6-2.3-11.5-2.3H346.5c-3.9 0-7.9 0.8-11.5 2.3-3.6 1.5-7 3.7-9.8 6.5-2.8 2.8-5 6.1-6.5 9.8-1.5 3.7-2.3 7.6-2.3 11.5v1.8c0 3.9 0.8 7.9 2.3 11.5 1.5 3.7 3.7 7 6.5 9.8 2.8 2.8 6.1 5 9.8 6.5 3.6 1.5 7.6 2.3 11.5 2.3h330.9zM463.8 537.4c8 0 15.6-3.2 21.3-8.8 5.6-5.6 8.8-13.3 8.8-21.3v-1.8c0-8-3.2-15.6-8.8-21.3-5.6-5.6-13.3-8.8-21.3-8.8H346.5c-3.9 0-7.9 0.8-11.5 2.3-3.6 1.5-7 3.7-9.8 6.5-2.8 2.8-5 6.1-6.5 9.8-1.5 3.6-2.3 7.6-2.3 11.5v1.8c0 3.9 0.8 7.9 2.3 11.5 1.5 3.6 3.7 7 6.5 9.8 2.8 2.8 6.1 5 9.8 6.5 3.6 1.5 7.6 2.3 11.5 2.3h117.3z m148.3 156.8v-105.7c0-7.1 2.6-14 7.4-19.4 4.7-5.3 11.3-8.7 18.4-9.6l3.4-0.2H747L612.1 694.2z"  horiz-adv-x="1024" />
      
      <glyph glyph-name="attach" unicode="&#58921;" d="M724.4 482.5L446.7 204.7c-42.4-42.4-113-42.4-155.3 0-42.4 42.4-42.4 113 0 155.3l327.9 328c70.6 70.6 185.2 70.6 255.8 0 70.6-70.6 70.6-185.2 0-255.8L523.6 82.3c-97.3-97.3-257.3-97.3-354.6 0-97.3 97.3-97.3 257.3 0 354.6l299.7 301.3c3.1 3.1 6.3 4.7 7.8 7.8l3.1 3.1c12.6 12.6 31.4 12.6 43.9 0 12.6-12.6 12.6-31.4 0-43.9-4.7-3.1-7.8-6.3-11-11L212.9 393c-73.7-73.7-73.7-193 0-266.7 73.7-73.7 193-73.7 266.7 0L779.3 426l11 11 39.2 39.2c45.5 45.5 45.5 120.8 0 166.3-45.5 45.5-120.8 45.5-166.3 0L335.3 316.1c-18.8-18.8-18.8-48.6 0-65.9 18.8-18.8 48.6-18.8 65.9 0L678.9 528c12.6 12.6 31.4 12.6 43.9 0 12.6-14.2 12.6-33 1.6-45.5z"  horiz-adv-x="1024" />
      
      <glyph glyph-name="a-TotalLockedOutputTokens" unicode="&#58977;" d="M512-4.3c-52.4 0-103.3 10.3-151.1 30.5-46.2 19.6-87.8 47.5-123.4 83.2s-63.6 77.2-83.2 123.4c-20.3 47.9-30.5 98.7-30.5 151.1 0 52.4 10.3 103.3 30.5 151.1 19.6 46.2 47.5 87.8 83.2 123.4s77.2 63.6 123.4 83.2c47.9 20.3 98.7 30.5 151.1 30.5 52.4 0 103.3-10.3 151.1-30.5 46.2-19.6 87.8-47.5 123.4-83.2s63.6-77.2 83.2-123.4c20.3-47.9 30.5-98.7 30.5-151.1 0-52.4-10.3-103.3-30.5-151.1-19.6-46.2-47.5-87.8-83.2-123.4s-77.2-63.6-123.4-83.2c-47.8-20.2-98.7-30.5-151.1-30.5z m0 711.4c-86.3 0-167.4-33.6-228.5-94.6S188.9 470.3 188.9 384c0-86.3 33.6-167.4 94.6-228.5 61-61 142.2-94.6 228.5-94.6 86.3 0 167.4 33.6 228.5 94.6 61 61 94.6 142.2 94.6 228.5 0 86.3-33.6 167.4-94.6 228.5-61.1 61-142.2 94.6-228.5 94.6zM659.7 180.8L516.2 266c-2.6 1.5-5.8 1.5-8.4 0l-143.5-85.2L401 343.5c0.7 2.9-0.3 6-2.6 8L273.1 461.6 439.2 477c3 0.3 5.6 2.2 6.8 4.9l66 153.3L578 482c1.2-2.8 3.8-4.7 6.8-4.9l166.1-15.4-125.3-110.2c-2.3-2-3.3-5-2.6-8l36.7-162.7zM410.4 417l25.7-22.6c18-15.8 25.9-40.1 20.6-63.4l-7.5-33.4 29.5 17.5c20.6 12.2 46.1 12.2 66.7 0l29.5-17.5-7.5 33.4c-5.3 23.3 2.6 47.6 20.6 63.4l25.7 22.6-34.1 3.2c-23.8 2.2-44.5 17.2-54 39.2L512 490.9l-13.6-31.5c-9.5-22-30.1-37-54-39.2l-34-3.2z"  horiz-adv-x="1024" />
      
      <glyph glyph-name="a-TotalUnspentInputTokens-01" unicode="&#58978;" d="M869.74 535.14c-19.56 46.24-47.55 87.76-83.2 123.4-35.65 35.65-77.17 63.64-123.41 83.2-47.89 20.25-98.74 30.52-151.14 30.52s-103.25-10.27-151.14-30.52c-46.24-19.56-87.76-47.55-123.4-83.2-35.65-35.65-63.64-77.17-83.2-123.4C134 487.25 123.73 436.4 123.73 384S134 280.75 154.25 232.86c19.56-46.24 47.55-87.76 83.2-123.41 35.65-35.65 77.17-63.64 123.4-83.2 47.89-20.25 98.74-30.53 151.14-30.53s103.25 10.27 151.14 30.53c46.24 19.56 87.76 47.55 123.41 83.2s63.64 77.17 83.2 123.41c20.25 47.89 30.53 98.74 30.53 151.14S890 487.25 869.74 535.14zM740.47 155.53C679.44 94.5 598.31 60.9 512 60.9s-167.44 33.61-228.47 94.63C222.5 216.56 188.9 297.69 188.9 384s33.61 167.44 94.63 228.47S425.69 707.1 512 707.1s167.44-33.61 228.47-94.63C801.5 551.44 835.1 470.31 835.1 384s-33.61-167.44-94.63-228.47zM534.79 566.64c-6.21 6.21-14.47 9.63-23.26 9.63s-17.05-3.42-23.25-9.63L329.37 407.73c-6.21-6.21-9.63-14.47-9.63-23.26s3.42-17.04 9.63-23.26L488.28 202.3c6.21-6.21 14.47-9.64 23.26-9.64s17.04 3.42 23.26 9.63L693.71 361.2c6.21 6.21 9.63 14.47 9.63 23.26s-3.42 17.05-9.63 23.25L534.8 566.63z m-23.25-318.3L375.41 384.47 511.54 520.6l136.13-136.13-136.13-136.13z"  horiz-adv-x="1024" />
      
      <glyph glyph-name="a-maker-01" unicode="&#58976;" d="M869.75 535.14c-19.56 46.24-47.55 87.76-83.2 123.41s-77.17 63.64-123.41 83.2c-47.89 20.26-98.74 30.53-151.14 30.53s-103.25-10.27-151.14-30.53c-46.24-19.56-87.76-47.55-123.41-83.2-35.65-35.65-63.64-77.17-83.2-123.41-20.26-47.89-30.53-98.74-30.53-151.14s10.27-103.25 30.53-151.14c19.56-46.24 47.55-87.76 83.2-123.41 35.65-35.65 77.17-63.64 123.41-83.2C408.75 6 459.6-4.28 512-4.28s103.25 10.27 151.14 30.53c46.24 19.56 87.76 47.55 123.41 83.2s63.64 77.17 83.2 123.41C890 280.75 900.28 331.6 900.28 384s-10.27 103.25-30.53 151.14zM537.58 213.95v54.81h74.5c64.32 0 120.41-40.61 141.39-99.44-4.19-4.7-8.5-9.3-12.99-13.79-9.26-9.26-19-17.89-29.14-25.87a397.532 397.532 0 0 0-60.62-28.39c-44.32-16.37-90.98-24.67-138.71-24.67s-94.4 8.3-138.72 24.67a398.11 398.11 0 0 0-60.66 28.42 329.094 329.094 0 0 0-29.1 25.83c-4.49 4.49-8.81 9.09-12.99 13.79 20.98 58.83 77.06 99.44 141.38 99.44h75.33v-54.81h50.33z m249.99 1.16C753.22 277.64 686.82 318.8 612.08 318.8H411.92c-74.74 0-141.14-41.16-175.49-103.69-30.96 50.31-47.53 108.32-47.53 168.88 0 86.3 33.61 167.44 94.64 228.47s142.17 94.64 228.47 94.64 167.44-33.61 228.47-94.64 94.64-142.17 94.64-228.47c0-60.57-16.57-118.58-47.54-168.89zM514.55 613.81c-66.3 0-120.23-53.94-120.23-120.23s53.94-120.51 120.23-120.51 120.23 54.06 120.23 120.51-53.93 120.23-120.23 120.23z m0-200.75c-44.24 0-80.23 36.12-80.23 80.51s35.99 80.23 80.23 80.23 80.23-35.99 80.23-80.23-35.99-80.51-80.23-80.51z"  horiz-adv-x="1024" />
      
      <glyph glyph-name="a-MyPermissions" unicode="&#58893;" d="M830.3 702.4c-47.5 47.5-118.6 65.7-210.7 65.7h-215c-92.1 0-163.3-18.3-210.7-65.7-47.6-47.5-65.9-118.7-65.9-210.8v-215c0-92.1 18.3-163.3 65.7-210.7 47.5-47.5 118.6-65.7 210.7-65.7h143.4c14.1 0 25.6 11.5 25.6 25.6 0 14.1-11.5 25.6-25.6 25.6H404.5c-87.1 0-141.4 17.6-174.5 50.7-33.2 33.2-50.7 87.5-50.7 174.5v215c0 87.1 17.6 141.4 50.7 174.5s87.5 50.7 174.5 50.7h215c87.1 0 141.4-17.6 174.5-50.7 33.2-33.2 50.7-87.5 50.7-174.5v-143.4c0-14.1 11.5-25.6 25.6-25.6 14.1 0 25.6 11.5 25.6 25.6V491.6c0.1 92.1-18.2 163.3-65.6 210.8zM699.5 457.7c8.7 11.2 6.6 27.3-4.5 35.9s-27.3 6.6-35.9-4.5l-82.7-106.7c-3.5-4.3-10-5.2-14.7-1.7l-65.5 51.5-0.2 0.1c-26.9 20.8-65.6 15.9-86.5-11.1l-85.3-110.7c-8.6-11.2-6.5-27.3 4.7-35.9 11.2-8.6 27.3-6.5 35.9 4.7L450.1 390c3.5 4.5 9.9 5.4 14.5 1.9l65.5-51.5 0.2-0.1c26.9-20.8 65.4-15.9 86.3 10.5l82.9 106.9zM732.4 255c-30.6-30.6-34.8-77.8-12.5-112.9l-98.6-98.6c-10-10-10-26.2 0-36.1 10-10 26.2-10 36.1 0l40.4 40.4 21.1-21.1c10-10 26.2-10 36.1 0 10 10 10 26.2 0 36.1l-21 21.1 22.8 22.8c0.5 0.5 1.1 1.1 1.5 1.7 12.1-5.7 25.3-8.5 38.4-8.5 23.3 0 46.5 8.9 64.2 26.6 35.4 35.4 35.4 93.1 0 128.6s-93 35.3-128.5-0.1z m92.5-92.4c-15.6-15.6-40.8-15.6-56.3 0-15.6 15.6-15.6 40.8 0 56.3 7.7 7.7 18 11.7 28.2 11.7s20.3-3.9 28.2-11.7c15.5-15.5 15.5-40.7-0.1-56.3z"  horiz-adv-x="1024" />
      
      <glyph glyph-name="top_up_balance" unicode="&#58892;" d="M484.8 362h-59.6c-16 0-28.5-11.1-28.5-25.2s12.4-24.8 28.7-24.8h5l0.1-8c-0.6-7.4 1.3-13.6 5.4-18.2 4.1-4.7 10.1-7.2 19.3-7.7 6.5 0 21.8 2.4 23.2 24.3 0.2 2.8 0.3 6 0.3 9.7h6.3c16.1 0 28.3 10.7 28.3 24.8 0 14-12.5 25.1-28.5 25.1zM318.8 510.7c-39.1 0-70.9-28-70.9-62.3 0-34.4 31.8-62.3 70.9-62.3 39 0 70.8 28 70.8 62.3 0 34.4-31.7 62.3-70.8 62.3z m19-62.3c0-7.9-8.7-14.6-18.9-14.6-10.3 0-19 6.7-19 14.6s8.7 14.6 19 14.6c10.2 0 18.9-6.7 18.9-14.6zM591.7 510.7c-39.1 0-70.9-28-70.9-62.3 0-34.4 31.8-62.3 70.9-62.3s70.9 28 70.9 62.3c-0.1 34.4-31.9 62.3-70.9 62.3z m18.9-62.3c0-7.9-8.7-14.6-18.9-14.6s-18.9 6.7-18.9 14.6 8.7 14.5 18.9 14.5 18.9-6.6 18.9-14.5zM866.5 156.4c-17.6 28.4-35.8 57.7-35.8 104.8 0 77.5 48.7 104.1 50.6 105.1 7 3.5 12 9.7 13.9 16.8 1.7 6.9 0.4 13.9-3.7 19.9-8.1 11.7-24.8 15.5-37.9 8.8-2.6-1.3-51-26.8-71.1-91v416c0 11.9-8.7 22.2-21.2 25.2-12 2.9-24.6-1.5-31.2-11l-79.7-112.9c-42.1 0.5-151.9 0.8-319 0.8-40.5 0-63.6 0-77-0.1l-72.9 110.6c-6.2 10.1-18.7 15.3-31.2 12.7-13.1-2.7-22.2-13.1-22.2-25.4v-657.1c0-41 38.1-74.4 85-74.4l607.4 0.1c1.3-0.1 3.2-0.2 5.5-0.2 9.3 0 27.3 1.8 43.3 13.6C887 31.8 896 52.1 896 79c0 29.9-15 54-29.5 77.4z m-141 492v-568.8c0-12.3-12.5-22.3-28-22.3H212.9c-15.4 0-27.9 10-27.9 22.3V646.2l28-46.2c5.3-8.7 16-13.4 26.2-13.4 3.4 0.1 29.2 0.2 92.2 0.2 143.6 0 320-0.4 331.6-0.9 10.6-1 21.1 3.7 26.8 11.8l35.7 50.7z m57-568.8V200.8c8.7-28.8 22.6-51 34.5-70.4 12.3-19.8 22-35.4 22-51.5 0-9.7-2.1-17.1-5.7-19.8-2.3-1.8-5.9-2.1-7.1-2.1h-0.1l-47.5 0.3c2.5 7.2 3.9 14.7 3.9 22.3z"  horiz-adv-x="1024" />
      
      <glyph glyph-name="a-MyCreatednodes" unicode="&#58891;" d="M830 702c-47.7 47.8-119.1 66-211 66H405c-91.8 0-163.2-18.2-211-66-47.8-47.7-66-119.1-66-211v-214c0-69.6 10.4-127.3 36.2-172 26.3-45.6 66.9-74.9 121-90.3h0.1C320 4.4 359.8 0 405 0h214c45 0 84.8 4.4 119.3 14.6h0.1c54.4 15.4 95.2 44.7 121.5 90.5C885.6 149.7 896 207.4 896 277V491c0 91.8-18.2 163.2-66 211z m11.4-425c0-65.2-9.9-111.9-28.8-144.7-18.2-31.6-46.2-53-88.7-65.1l-0.6-0.2c-28.1-8.3-62.4-12.4-104.3-12.4H405c-41.7 0-75.8 4.1-103.9 12.3l-0.7 0.2c-42.7 12.1-70.8 33.4-89 65.2-18.9 32.8-28.8 79.5-28.8 144.7V491c0 86.5 17.5 139.9 50 172.4s85.9 50 172.4 50h214c86.5 0 139.9-17.5 172.4-50s50-85.9 50-172.4v-214zM716.6 424.2h-67.8c0 21.6-0.1 39.7-0.4 46.8-0.9 23.4-17 40.5-34.1 40.5H409.6c-17 0-34.1-17.1-34.1-40.5v-61.9h-68.2c-6.5 0-12.8-2.6-17.4-7.2-4.6-4.6-7.2-10.9-7.2-17.4s2.6-12.8 7.2-17.4c4.6-4.6 10.9-7.2 17.4-7.2h68.2v-36.2c0-33.9 10.5-51.2 44.4-51.2h194.5c17 0 34.1 17.1 34 34.3 0 0 0.2 32.1 0.3 68.2h67.9c6.5 0 12.8 2.6 17.4 7.2 4.6 4.6 7.2 10.9 7.2 17.4s-2.6 12.8-7.2 17.4c-4.6 4.6-10.9 7.2-17.4 7.2z m-122.7-70.3c0-23.5 0-26.8-13.6-26.8H443.8c-12 0-13.6 0-13.6 13.6V443.1c0 14 1.6 14 13.6 14h136.5c12 0 13.6-2 13.6-14v-89.2z"  horiz-adv-x="1024" />
      
      <glyph glyph-name="tianjia1" unicode="&#59105;" d="M940.2368 423.5776h-386.3552V809.8816a39.5776 39.5776 0 1 1-79.104 0v-386.304H88.4224a39.5776 39.5776 0 1 1 0-79.1552h386.3552v-386.304a39.5776 39.5776 0 0 1 79.104 0v386.304h386.3552a39.5776 39.5776 0 0 1 0 79.1552z"  horiz-adv-x="1024" />
      
      <glyph glyph-name="chenggong" unicode="&#58905;" d="M511.978705-128C229.689806-128 0 101.689806 0 384.021295 0 666.310194 229.689806 896 511.978705 896s511.978705-229.689806 511.978705-511.978705c0.04259-282.331489-229.647215-512.021295-511.978705-512.021295z m0 945.505968c-239.017094 0-433.484673-194.467579-433.484673-433.442082 0-239.017094 194.467579-433.527264 433.484673-433.527264 239.017094 0 433.484673 194.467579 433.484673 433.527264 0 238.974504-194.424989 433.442083-433.484673 433.442082zM774.377906 522.354781a42.803311 42.803311 0 0 1-60.691261 0l-269.085888-269.724743-134.841076 134.628124a42.590359 42.590359 0 1 1-60.222768-60.265357l165.122822-164.86728a42.590359 42.590359 0 0 1 30.537287-12.393794c11.116084-0.085181 22.232167 4.046084 30.79283 12.564156l298.430645 299.154681a43.186624 43.186624 0 0 1-0.042591 60.904213z"  horiz-adv-x="1025" />
      
      <glyph glyph-name="more" unicode="&#59495;" d="M512 853.333333a469.333333 469.333333 0 1 1 469.333333-469.333333A469.333333 469.333333 0 0 1 512 853.333333z m0-864a394.666667 394.666667 0 1 0 394.666667 394.666667 395.146667 395.146667 0 0 0-394.666667-394.666667zM304.906667 384m-66.666667 0a66.666667 66.666667 0 1 1 133.333333 0 66.666667 66.666667 0 1 1-133.333333 0ZM512 384m-66.666667 0a66.666667 66.666667 0 1 1 133.333334 0 66.666667 66.666667 0 1 1-133.333334 0ZM719.093333 384m-66.666666 0a66.666667 66.666667 0 1 1 133.333333 0 66.666667 66.666667 0 1 1-133.333333 0Z"  horiz-adv-x="1024" />
      
      <glyph glyph-name="bianji" unicode="&#58998;" d="M1012.309471 713.467196a109.278848 109.278848 0 0 1-34.369151 75.260914l-72.752217 64.77456a107.623107 107.623107 0 0 1-151.374785 0L339.978637 438.263119l-5.017394-5.017394c-30.104366-29.753148-58.101426-59.757166-58.703514-78.221177l-37.429761-209.476211a21.624969 21.624969 0 0 1 4.013915-17.81175 20.571317 20.571317 0 0 1 16.256358-7.927483h0.401392a12.34279 12.34279 0 0 1 3.813219 0.602087l227.789701 40.139154c8.479396 1.505218 25.689059 17.510706 58.452643 50.173943 3.462002 3.261306 6.974178 6.924004 10.034789 9.633397l426.177471 422.966339a89.159096 89.159096 0 0 1 26.542015 70.143172zM332.803763 214.085942l21.825665 122.273899c1.40487 1.90661 3.462002 4.465481 6.321917 7.827135a41.393503 41.393503 0 0 1 8.078005-11.690528l93.423881-93.423882s0.451565-0.401392 0.652262-0.652261l-1.756088-1.605566z m187.449851 80.278309c-0.351218 0.401392-0.702435 0.852957-1.103827 1.254349L425.725905 389.243177a40.992111 40.992111 0 0 1-12.794355 8.579744l268.280072 269.183204a40.139154 40.139154 0 0 1 8.128179-11.841051L782.713509 561.741193c1.154001-1.154001 2.358175-2.15748 3.56235-3.160959z m409.419373 406.408937L842.92224 614.624528c-1.053653 1.304523-2.15748 2.609045-3.361654 3.863394l-93.524229 93.423882a38.483414 38.483414 0 0 1-11.891225 8.178352l76.164045 76.465089a27.445147 27.445147 0 0 0 38.533588 0l1.455045-1.40487 1.555392-1.404871 71.698564-63.921603a28.749669 28.749669 0 0 0 8.629919-19.46749v-2.408349a9.081484 9.081484 0 0 0-2.508698-7.1247zM901.876623 350.308197a40.139154 40.139154 0 0 1-40.139154-40.139154v-275.304424a73.655348 73.655348 0 0 0-73.555-73.605175H162.764271a73.655348 73.655348 0 0 0-73.555001 73.605175V686.824832A73.655348 73.655348 0 0 0 162.764271 760.530354h320.711842a40.139154 40.139154 0 0 1 0 80.278309H162.764271A153.983831 153.983831 0 0 1 9.03131 686.824832v-651.91004a153.933657 153.933657 0 0 1 153.732961-153.783134H788.232642a153.983831 153.983831 0 0 1 153.783135 153.783134v275.304425a40.139154 40.139154 0 0 1-40.139154 40.08898z"  horiz-adv-x="1024" />
      
      <glyph glyph-name="lock" unicode="&#58946;" d="M880.75264 498.838187H277.507413V593.95072c0 129.590613 109.216427 235.165013 243.456 235.165013s243.554987-105.68704 243.554987-235.472213c0-17.599147 14.639787-31.737173 32.846507-31.737173s32.846507 14.138027 32.846506 31.737173C830.313813 758.528 691.5072 892.586667 521.0624 892.586667c-82.530987 0-160.279893-31.0272-218.740053-87.483734-58.4704-56.456533-90.518187-131.324587-90.518187-211.165866v-95.09888H142.431573c-40.369493 0-72.615253-31.228587-72.615253-69.986987v-482.23232c0-38.959787 32.44032-71.205547 72.615253-71.205547h738.228907c40.379733 0 73.526613 32.139947 73.526613 71.205547V428.868267c0.105813 38.754987-33.05472 69.983573-73.4208 69.983573l-0.013653-0.013653z m0.515413-560.052907H142.967467a7.181653 7.181653 0 0 0-7.3216 7.028053l-0.003414 0.146774V428.25728a7.26016 7.26016 0 0 0 7.325014 7.17824h738.0992a7.174827 7.174827 0 0 0 7.3216-7.17824v-482.34496h0.167253a7.26016 7.26016 0 0 0-7.3216-7.185067l0.034133 0.058027zM506.118827 334.267733c-37.2224 0-67.218773-28.992853-67.218774-64.99328 0-23.7056 13.154987-44.45184 32.843094-55.845546v-126.027094c0-17.50016 14.749013-31.73376 32.846506-31.73376s32.846507 14.247253 32.846507 31.73376v124.50816c21.353813 10.758827 35.887787 32.447147 35.887787 57.412267 0 35.88096-29.999787 64.90112-67.222187 64.90112l0.017067 0.044373z"  horiz-adv-x="1024" />
      
      <glyph glyph-name="lock1" unicode="&#60621;" d="M571.995313 236.051558a59.095383 59.095383 0 0 0-29.997657-50.756034v-129.229904H482.002344v129.169908a59.035388 59.035388 0 0 0-29.997657 50.81603 59.995313 59.995313 0 1 0 119.990626 0z m327.874385 150.708226v-424.766815c0-49.616124-40.376846-89.992969-89.99297-89.992969H210.583548c-49.616124 0-89.992969 40.376846-89.992969 89.992969V386.759784c0 49.616124 40.376846 89.992969 89.992969 89.99297H212.023436V596.023436c0 165.407078 134.569487 299.976564 299.976564 299.976564s299.976564-134.569487 299.976564-299.976564v-119.510664a89.872979 89.872979 0 0 0 87.893134-89.752988zM272.018749 476.752754h479.962502V596.023436c0 132.34966-107.631591 239.981251-239.981251 239.981251s-239.981251-107.631591-239.981251-239.981251V476.752754z m567.855636-89.99297a29.81767 29.81767 0 0 1-27.897821 29.57769v-0.239982h-599.953128V416.757441h-1.439888a29.997656 29.997656 0 0 1-29.997656-29.997657v-424.766815a29.997656 29.997656 0 0 1 29.997656-29.997656h599.29318a29.997656 29.997656 0 0 1 29.997657 29.997656V386.759784z"  horiz-adv-x="1024" />
      
      <glyph glyph-name="dao" unicode="&#58896;" d="M512 832C265 832 64 631 64 384s201-448 448-448 448 201 448 448S759 832 512 832z m0-832c-211.8 0-384 172.2-384 384s172.2 384 384 384 384-172.2 384-384-172.2-384-384-384zM632 599c-34.4 19.6-75.5 29.4-123.4 29.4H345.4v-488.7h158.2c49.6 0 92 9.8 127 29.4 35 19.7 61.7 47.9 80.2 84.5 18.6 36.6 27.9 80.3 27.9 131.2 0 50.8-9.2 94.3-27.7 130.5-18.3 36.4-44.7 64.3-79 83.7z m15.7-312.6c-12.2-26.7-30.7-47.2-55.4-61.3-24.7-14-55.6-21-92.8-21h-80.4V563.9h85c35.6 0 65.5-6.9 89.5-20.8 24-13.8 42.1-34.1 54.2-60.9 12.2-26.7 18.4-59.3 18.4-97.6-0.1-38.5-6.2-71.3-18.5-98.2z"  horiz-adv-x="1024" />
      
      <glyph glyph-name="add-work" unicode="&#58897;" d="M512 772L64-4h896L512 772z m0-112l351-608H161l351 608zM512.1 409.9c-85.6 0-155.2-69.6-155.2-155.2s69.6-155.2 155.2-155.2 155.2 69.6 155.2 155.2-69.7 155.2-155.2 155.2z m0-254.4c-54.7 0-99.2 44.5-99.2 99.2s44.5 99.2 99.2 99.2 99.2-44.5 99.2-99.2-44.6-99.2-99.2-99.2z"  horiz-adv-x="1024" />
      
      <glyph glyph-name="nft-minted" unicode="&#58898;" d="M628.5 800h-233C185.6 800 96 710.4 96 500.5v-232.9c0-210 89.6-299.5 299.5-299.5h233C838.4-32 928 57.6 928 267.5v233C928 710.4 838.4 800 628.5 800z m244-532.5c0-177.9-66.1-244.1-244-244.1h-233c-177.9 0-244.1 66.1-244.1 244.1v233c0 177.9 66.1 244.1 244.1 244.1h233c177.9 0 244-66.1 244-244.1v-233zM698.2 561.2l-124.4 69.2c-35.6 19.6-88.7 19.4-123.7-0.5L326 560.8c-36.7-20.4-65.5-69.3-65.5-111.2V318c0-42.2 28.9-91.1 65.5-111.1l124.2-69.1c17.5-9.8 39.6-14.7 61.7-14.7s44.3 4.9 62 14.7l124.2 69.1C735 227.1 763.7 276 763.7 318V450c0 42.2-28.8 91.1-65.5 111.2z m-220.9 20.3c0.1 0.1 0.2 0.1 0.3 0.2 9 5.1 21.8 7.7 34.8 7.7 12.7 0 25.5-2.5 34.6-7.5l124.4-69.2c4.3-2.3 8.4-5.9 12.3-9.9L512 403.2l-171.3 99.3c3.9 3.9 8 7.5 12.3 9.9l124.3 69.1zM352.9 255.4C333.6 265.9 316 295.8 316 318V449.6c0 0.9 0.4 1.9 0.5 2.8l167.8-97.2v-171.6c-2.3 0.9-5 1.4-7 2.5l-124.4 69.3zM708.2 318c0-22.1-17.6-51.9-37-62.7L547 186.2c-2.1-1.2-4.9-1.7-7.4-2.6V355.1l168.1 97.5c0-0.8 0.5-1.8 0.5-2.6v-132z"  horiz-adv-x="1024" />
      
      <glyph glyph-name="nft-holder" unicode="&#58900;" d="M632.5 498L464.7 329.8 390.8 404c-10.8 10.9-28.4 10.8-39.2 0.1-10.9-10.8-10.9-28.4-0.1-39.2L445 271c5.2-5.3 12.3-8.2 19.7-8.2 7.4 0 14.4 2.9 19.6 8.1l187.4 187.8c10.8 10.8 10.8 28.4 0 39.2-10.8 10.9-28.3 10.9-39.2 0.1zM904 451l-52.9 61.4c-5.6 6.5-11.4 22-11.4 30.7v66c0 56.6-46 102.6-102.6 102.6h-66c-8.9 0-24 5.7-30.8 11.5l-61.5 53c-37.7 31.6-96.3 31.8-133.7-0.2l-61.5-52.5c-6.5-5.6-22-11.4-30.7-11.4h-67.1c-56.6 0-102.6-46-102.6-102.6v-66.7c0-8.4-5.8-24-11.3-30.6l-52.5-61.8c-31.2-37.2-31.2-95.5 0.1-132.8l52.2-61.5c5.6-6.8 11.4-22.3 11.4-30.8V159c0-56.6 46-102.6 102.6-102.6h67.1c8.9 0 24-5.7 30.8-11.5l61.5-53c18.8-15.8 42.9-23.8 66.9-23.8 24.1 0 48.2 8 66.9 24l61.4 52.9c6.5 5.6 22 11.4 30.7 11.4h66c56.6 0 102.6 46 102.6 102.6v66c0 8.9 5.7 24 11.5 30.8l53 61.5c31.9 37.6 31.8 96.4-0.1 133.7z m-42-97.8L809.4 292c-14.5-16.7-25.1-44.9-25.1-67.1v-66c0-26-21.2-47.2-47.2-47.2h-66c-22.2 0-50.4-10.6-67-25L542.8 34c-16.6-14.2-45-14.1-61.7-0.1L420 86.7c-16.7 14.5-44.9 25.1-67.1 25.1h-67.1c-26 0-47.2 21.2-47.2 47.2v66.3c0 21.5-10.2 49.3-24.5 66.5l-52.3 61.6c-14 16.7-14 44.7-0.1 61.3l52.5 61.8c14.1 17 24.3 44.8 24.3 66.3v66.7c0 26 21.2 47.2 47.2 47.2h67.1c22.2 0 50.4 10.6 66.9 24.9L481 734c16.6 14.2 45 14.1 61.7 0.1l61.2-52.6c16.7-14.5 44.9-25.1 67.1-25.1h66c26 0 47.2-21.2 47.2-47.2v-66c0-22.2 10.6-50.4 25-67l52.7-61.3c14.2-16.6 14.2-45 0.1-61.7z"  horiz-adv-x="1024" />
      
      <glyph glyph-name="nft" unicode="&#58901;" d="M512 771.9L64-3.9h896L512 771.9z m188.3-445.5l156.3-270.6H519.8l180.5 270.6zM512 151.7L399.6 320.2h224.7L512 151.7zM669.3 380H354.6L512 652.5 669.3 380z m-345.6-53.6l180.4-270.6H167.5l156.2 270.6z"  horiz-adv-x="1024" />
      
      <glyph glyph-name="profile" unicode="&#58902;" d="M627.6 797H396.4C187.9 797 99 708.1 99 499.6v-231.2c0-159.4 53.5-248.8 168.4-281.6h0.2c0.1 0 0.1-0.1 0.2-0.1h0.2c35.9-10.5 77.8-15.6 128.3-15.6h231.3c50.4 0 92.3 5.1 128.1 15.6 0.1 0 0.3 0 0.4 0.1C871.4 19.3 925 108.8 925 268.4V499.6C925 708.1 836.1 797 627.6 797zM396.3 26.1c-34 0-63.3 2.5-88.8 7.6 0.4 1.6 0.5 3.3 1 4.8 1.2 3.9 2.8 7.6 4.4 11.4 2.3 5.8 4.9 11.4 8 16.9 2.1 3.6 4.4 7.1 6.8 10.6 3.6 5.2 7.4 10.3 11.6 15.1 2.8 3.2 5.8 6.4 8.8 9.4 4.7 4.6 9.7 9 14.9 13.2 3.4 2.8 6.9 5.5 10.6 8.1 5.7 3.9 11.7 7.5 17.9 11 3.9 2.2 7.8 4.5 11.9 6.4 6.7 3.2 13.8 5.9 21 8.5 4.2 1.5 8.2 3.3 12.5 4.6 8.1 2.5 16.5 4.2 25 5.9 3.8 0.7 7.5 1.8 11.4 2.4 12.6 1.9 25.5 3 38.7 3h0.6c13 0 25.6-1.1 38-2.9 4.3-0.6 8.4-1.8 12.6-2.7 8-1.6 16-3.2 23.7-5.5 4.7-1.4 9.2-3.3 13.8-5 6.7-2.5 13.3-5 19.6-8 4.5-2.2 8.8-4.7 13.1-7.1 5.7-3.2 11.3-6.5 16.6-10.2 4.1-2.8 7.9-5.9 11.8-9 4.8-3.9 9.4-7.9 13.7-12.1 3.5-3.4 6.8-6.9 9.9-10.6 3.8-4.4 7.3-9 10.6-13.8 2.7-3.9 5.3-7.8 7.6-11.9 2.8-4.9 5-10.1 7.2-15.3 1.8-4.3 3.6-8.5 5-13 0.4-1.4 0.5-2.9 0.9-4.3-25.6-5.1-54.8-7.6-88.9-7.6H396.3z m473.6 242.3c0-119.5-30.3-186.9-100.1-218.4-0.4 1.4-1.2 2.7-1.6 4.1-1.4 4.5-3.4 8.7-5.1 13.1-3.2 8.2-6.6 16.3-10.8 24-2.5 4.6-5.5 8.8-8.4 13.2-4.6 7-9.5 13.9-14.9 20.4-3.6 4.2-7.3 8.3-11.2 12.3-5.9 6.1-12.1 11.8-18.7 17.4-4.4 3.7-8.9 7.2-13.6 10.7-7.1 5.1-14.5 9.8-22.2 14.3-5.1 3-10 5.9-15.3 8.6-8.3 4.2-17 7.7-25.8 11.1-5.4 2.1-10.6 4.3-16.1 6.1-10 3.2-20.4 5.5-30.9 7.6-4.9 1-9.6 2.5-14.7 3.2-15.7 2.4-31.8 3.9-48.3 3.9h-0.5c-16.3 0-32.2-1.4-47.7-3.8-5.4-0.8-10.5-2.4-15.8-3.5-10-2.1-20-4.2-29.5-7.3-6-1.9-11.7-4.4-17.5-6.6-8.3-3.2-16.5-6.5-24.3-10.4-5.8-2.9-11.3-6.2-16.8-9.4-7.1-4.2-14-8.5-20.6-13.2-5.2-3.8-10.2-7.7-15-11.8-6.1-5.1-11.7-10.4-17.2-16-4.3-4.4-8.5-8.9-12.5-13.6-5-6-9.4-12.3-13.7-18.8-3.3-4.9-6.6-9.7-9.4-14.8-3.9-7.1-6.9-14.5-9.9-22-2-5-4.3-9.9-5.9-15-0.4-1.3-1.1-2.4-1.4-3.7-69.8 31.5-100.1 98.8-100.1 218.4V499.6c0 176.7 65.7 242.3 242.3 242.3H628c176.6 0 242.3-65.7 242.3-242.3v-231.2zM512 604.3c-91.3 0-165.5-74.3-165.5-165.5 0-91.5 74.3-165.9 165.5-165.9 91.3 0 165.5 74.4 165.5 165.9 0 91.2-74.2 165.5-165.5 165.5z m0-276.4c-60.9 0-110.5 49.7-110.5 110.8 0 60.9 49.6 110.5 110.5 110.5s110.5-49.5 110.5-110.5S572.9 327.9 512 327.9z"  horiz-adv-x="1024" />
      
      <glyph glyph-name="top-up-banlance" unicode="&#58903;" d="M911 783v-456c0-188.9-153.1-342-342-342H113V441c0 188.9 153.1 342 342 342h456z m-57-57H455c-157.4 0-285-127.6-285-285v-399h399c153.3 0 278.3 121 284.7 272.6l0.3 12.4V726zM375.1 319.3c15.7 0 28.5-12.8 28.5-28.5v-142.5c0-15.7-12.8-28.5-28.5-28.5s-28.5 12.8-28.5 28.5V290.8c0 15.7 12.8 28.5 28.5 28.5zM515.8 364c15.7 0 28.5-12.8 28.5-28.5v-187.3c0-15.7-12.8-28.5-28.5-28.5s-28.5 12.8-28.5 28.5V335.5c0 15.8 12.8 28.5 28.5 28.5z m140.7 93.3c15.7 0 28.5-12.8 28.5-28.5v-280.6c0-15.7-12.8-28.5-28.5-28.5S628 132.5 628 148.2V428.8c0 15.8 12.8 28.5 28.5 28.5z m43.7 189.3c15.7 0 28.5-12.8 28.5-28.5v-98.8c0-14-10.1-25.6-23.4-28l-5.1-0.5c-15.7 0-28.5 12.8-28.5 28.5v30.4c-56.9-63.5-129.3-97.4-209.9-107.2-57.6-7-115.5-0.4-146.5 9.7-15 4.9-23.1 21-18.2 36 4.9 15 21 23.1 36 18.2 23.3-7.7 72.8-13.3 121.8-7.3 68.2 8.3 128.3 36.6 175.8 90.4l-29.3 0.1c-15.7 0-28.5 12.8-28.5 28.5s12.8 28.5 28.5 28.5h98.8z"  horiz-adv-x="1024" />
      
      <glyph glyph-name="log-out" unicode="&#58904;" d="M634.9 786.8c-174.7 0-258.6-69.3-272-224.7-1.3-14.8 9.6-27.7 24.4-29 14.5-1.3 27.7 9.6 29 24.4C427.2 684 488.5 733.3 640 733.3c160.7 0 220.4-59.8 220.4-220.5v-257.5c0-162.7-57.7-220.4-225.5-220.4-145.4 0-206.6 48.4-218.2 172.8-1.4 14.7-14 25.1-29.2 24.2-14.7-1.4-25.5-14.4-24.2-29.2 14.3-153.1 98-221.3 276.7-221.3 192 0 274 82 274 274V512.7c0 192.1-82 274.1-279.1 274.1zM201.5 357.6h429c14.8 0 26.8 12 26.8 26.8s-12 26.8-26.8 26.8h-429l86.6 86.6c10.5 10.5 10.5 27.4 0 37.9a26.738 26.738 0 0 1-37.9 0L117.9 403.3c-5-5-7.9-11.8-7.9-18.9s2.8-13.9 7.9-18.9l132.3-132.3c5.2-5.2 12.1-7.9 18.9-7.9 6.9 0 13.7 2.6 18.9 7.9 10.5 10.5 10.5 27.4 0 37.9l-86.5 86.5z"  horiz-adv-x="1024" />
      
      <glyph glyph-name="wallet1" unicode="&#58910;" d="M553.8 539.3H302.9c-16.5 0-29.9-13.4-29.9-29.9s13.4-29.9 29.9-29.9h250.8c16.5 0 29.9 13.4 29.9 29.9s-13.3 29.9-29.8 29.9zM918.1 492.2v38.1c0 129.3-80.1 222.2-202.6 236.4-11.6 1.9-23.7 2.5-36.3 2.5H302.9c-13.3 0-26.1-0.9-37.6-2.7C143 751.2 64 658.5 64 530.3v-292.7c0-142.9 96-238.9 238.9-238.9h376.3c142.9 0 238.9 96 238.9 238.9v37.9c24.8 11.7 41.9 36.4 41.9 65.4v86.2c0 28.8-16.9 53.4-41.9 65.1zM745.8 379.4c-1.5 16.3 4.4 32.3 16.7 44.5 10.1 10.3 23.9 16 38.8 16h85.9c7.3-0.2 13-5.8 13-12.8v-86.2c0-6.9-5.7-12.5-11.9-12.8h-82c-31 0-58.1 22.9-60.5 51.3z m112.6-141.7c0-108.8-70.4-179.2-179.2-179.2H302.9c-108.9 0-179.2 70.4-179.2 179.2V530.3c0 97.6 57.1 165.4 149.9 177 9.4 1.5 19.2 2.2 29.3 2.2h376.3c9.2 0 17.9-0.2 27.9-1.9 93.3-10.9 151.3-78.8 151.3-177.3v-30.7h-57.1c-15.9 0-31.2-3.3-45.3-9.3-6.5-2.8-12.8-6.1-18.7-10.1-6.2-4.2-12-9-17.4-14.5-24.7-24.3-37-57.8-33.7-91.7 4.9-59.3 57.7-105.6 120.1-105.6h52.1v-30.7z"  horiz-adv-x="1024" />
      
      <glyph glyph-name="tiaojian" unicode="&#58943;" d="M842.991 827.866h-677.25c-33.808 0-61.073-27.264-61.073-61.072v-1.09c0-13.088 4.908-25.63 12.542-35.99l257.922-335.353v-294.457c0-31.627 17.45-60.527 45.26-75.796l157.588-49.62c22.902-11.997 50.712-3.273 62.708 19.084l0.546 1.09a46.291 46.291 0 0 1 4.907 20.722V395.45L902.428 729.17c20.72 26.719 15.268 65.434-11.451 85.61-10.36 8.725-34.354 13.087-47.986 13.087z m-617.814-85.065H794.46L555.623 417.263v-340.807l-77.431 20.176c-7.089 3.817-11.451 11.451-11.451 19.63v299.91L225.177 742.8009999999999z"  horiz-adv-x="1024" />
      
      <glyph glyph-name="seednodes" unicode="&#58890;" d="M650.971429 888.685714H373.028571c-256 0-365.714286-109.714286-365.714285-365.714285v-277.942858c0-256 109.714286-365.714286 365.714285-365.714285h277.942858c256 0 365.714286 109.714286 365.714285 365.714285V522.971429c0 256-109.714286 365.714286-365.714285 365.714285z m292.571428-643.657143c0-212.114286-73.142857-292.571429-292.571428-292.571428H373.028571c-212.114286 0-292.571429 73.142857-292.571428 292.571428V522.971429c0 212.114286 73.142857 292.571429 292.571428 292.571428h277.942858c212.114286 0 292.571429-73.142857 292.571428-292.571428v-277.942858zM577.828571 442.514286c14.628571-43.885714 51.2-73.142857 102.4-73.142857 58.514286 0 109.714286 51.2 109.714286 109.714285S731.428571 588.8 672.914286 588.8c-43.885714 0-87.771429-29.257143-102.4-73.142857h-292.571429V618.057143c0 21.942857-14.628571 36.571429-36.571428 36.571428s-36.571429-14.628571-36.571429-36.571428v-270.628572c0-102.4 80.457143-182.857143 182.857143-182.857142h190.171428c14.628571-36.571429 51.2-65.828571 95.085715-65.828572 58.514286 0 109.714286 51.2 109.714285 109.714286S731.428571 310.857143 672.914286 310.857143c-43.885714 0-87.771429-29.257143-95.085715-73.142857H387.657143c-58.514286 0-109.714286 43.885714-109.714286 109.714285V442.514286h299.885714z m95.085715 73.142857c21.942857 0 36.571429-14.628571 36.571428-36.571429s-14.628571-29.257143-36.571428-29.257143c-14.628571 0-29.257143 14.628571-29.257143 29.257143s14.628571 36.571429 29.257143 36.571429z m0-277.942857c21.942857 0 36.571429-14.628571 36.571428-36.571429s-14.628571-36.571429-36.571428-36.571428c-14.628571 7.314286-29.257143 21.942857-29.257143 36.571428 0 21.942857 14.628571 36.571429 29.257143 36.571429z"  horiz-adv-x="1024" />
      
      <glyph glyph-name="subnodes" unicode="&#58884;" d="M650.971429 888.685714H373.028571c-256 0-365.714286-109.714286-365.714285-365.714285v-277.942858c0-256 109.714286-365.714286 365.714285-365.714285h277.942858c256 0 365.714286 109.714286 365.714285 365.714285V522.971429c0 256-109.714286 365.714286-365.714285 365.714285z m292.571428-643.657143c0-212.114286-73.142857-292.571429-292.571428-292.571428H373.028571c-212.114286 0-292.571429 73.142857-292.571428 292.571428V522.971429c0 212.114286 73.142857 292.571429 292.571428 292.571428h277.942858c212.114286 0 292.571429-73.142857 292.571428-292.571428v-277.942858zM768 266.971429c-14.628571 95.085714-131.657143 168.228571-219.428571 168.228571-124.342857 0-190.171429 36.571429-212.114286 73.142857 29.257143 14.628571 51.2 51.2 51.2 80.457143 0 51.2-43.885714 102.4-102.4 102.4s-95.085714-43.885714-95.085714-102.4c0-43.885714 29.257143-80.457143 65.828571-95.085714v-234.057143c-36.571429-7.314286-65.828571-43.885714-65.828571-87.771429 0-51.2 43.885714-102.4 102.4-102.4s102.4 43.885714 102.4 102.4c0 36.571429-21.942857 73.142857-58.514286 87.771429v146.285714c36.571429-21.942857 102.4-43.885714 212.114286-43.885714 51.2 0 138.971429-51.2 146.285714-102.4-29.257143-14.628571-51.2-51.2-51.2-87.771429 0-51.2 43.885714-102.4 95.085714-102.4 51.2 0 102.4 43.885714 102.4 102.4 0 51.2-29.257143 87.771429-73.142857 95.085715zM292.571429 149.942857c-14.628571 0-29.257143 14.628571-29.257143 29.257143s14.628571 21.942857 29.257143 21.942857 29.257143-14.628571 29.257142-21.942857c-7.314286-21.942857-21.942857-29.257143-29.257142-29.257143z m0 416.914286c-14.628571 0-29.257143 14.628571-29.257143 29.257143s14.628571 21.942857 29.257143 21.942857 21.942857-14.628571 21.942857-29.257143-14.628571-21.942857-21.942857-21.942857z m453.485714-416.914286c-14.628571 0-21.942857 14.628571-21.942857 29.257143s14.628571 21.942857 21.942857 21.942857c14.628571 0 29.257143-14.628571 29.257143-21.942857-7.314286-21.942857-21.942857-29.257143-29.257143-29.257143z"  horiz-adv-x="1024" />
      
      <glyph glyph-name="cuowu" unicode="&#58885;" d="M512-128C229.248-128 0 101.248 0 384S229.248 896 512 896s512-229.248 512-512-229.248-512-512-512z m0 938.666667C276.352 810.666667 85.333333 619.648 85.333333 384s191.018667-426.666667 426.666667-426.666667 426.666667 191.018667 426.666667 426.666667S747.648 810.666667 512 810.666667z m198.698667-625.365334a42.666667 42.666667 0 0 0-60.330667 0L512 323.669333l-138.368-138.368a42.666667 42.666667 0 0 0-60.330667 60.330667L451.669333 384 313.301333 522.368a42.666667 42.666667 0 0 0 60.330667 60.330667L512 444.330667l138.368 138.368a42.624 42.624 0 1 0 60.330667-60.330667L572.330667 384l138.368-138.368a42.666667 42.666667 0 0 0 0-60.330667z"  horiz-adv-x="1024" />
      
      <glyph glyph-name="dui" unicode="&#59019;" d="M517.613889-114.377409c-66.653788 0-131.336031 13.065657-192.264544 38.829395-58.812166 24.872645-111.631728 60.482966-156.977244 105.828482S87.427403 128.434408 62.543619 187.257712C36.779881 248.175086 23.714224 312.857329 23.714224 379.522256s13.065657 131.336031 38.829395 192.253404c24.872645 58.823304 60.482966 111.631728 105.828482 156.977244s98.15394 80.944698 156.977244 105.828482c60.917374 25.763738 125.599617 38.829396 192.264544 38.829396s131.336031-13.065657 192.253404-38.829396c58.823304-24.872645 111.631728-60.482966 156.977244-105.828482 45.345516-45.345516 80.944698-98.15394 105.828482-156.977244 25.763738-60.917374 38.829396-125.599617 38.829396-192.253404s-13.065657-131.336031-38.829396-192.264544c-24.872645-58.812166-60.482966-111.631728-105.828482-156.977244-45.345516-45.345516-98.15394-80.944698-156.977244-105.828482-60.917374-25.763738-125.599617-38.829396-192.253404-38.829395z m0 898.678849c-223.196624 0-404.779185-181.582561-404.779185-404.779184s181.582561-404.779185 404.779185-404.779185 404.779185 181.582561 404.779184 404.779185-181.582561 404.779185-404.779184 404.779184z m-19.091677-579.099334l285.617718 285.617717c17.398599 17.398599 17.398599 45.612844 0 63.011444-17.398599 17.398599-45.612844 17.398599-63.011444 0L467.010921 299.713701 314.088152 452.63647c-17.398599 17.398599-45.612844 17.398599-63.011443 0s-17.398599-45.612844 0-63.011443l184.43406-184.43406c8.354001-8.354001 19.693165-13.054519 31.500152-13.054518s23.146152 4.689379 31.500152 13.054518z"  horiz-adv-x="1035" />
      
      <glyph glyph-name="link" unicode="&#58889;" d="M512 832C264.6 832 64 631.4 64 384s200.6-448 448-448 448 200.6 448 448S759.4 832 512 832z m35.7-602l-29.6-29.6c-25.3-25.3-59-39.3-94.9-39.3s-69.5 14-94.9 39.3c-52.3 52.3-52.3 137.4 0 189.7l29.6 29.6c11.6 11.6 30.3 11.6 41.9 0 11.6-11.6 11.6-30.3 0-41.9l-29.6-29.6c-29.2-29.2-29.2-76.7 0-106 28.3-28.3 77.7-28.4 106 0l29.6 29.6c11.6 11.6 30.3 11.6 41.9 0 11.6-11.5 11.6-30.3 0-41.8z m58.4 206.2L459.8 289.9c-5.8-5.8-13.4-8.7-20.9-8.7-7.6 0-15.2 2.9-20.9 8.7-11.6 11.6-11.6 30.3 0 41.9l146.3 146.4c11.6 11.6 30.3 11.6 41.9 0 11.5-11.6 11.5-30.4-0.1-42z m89.5-58.4L666 348.3c-5.8-5.8-13.4-8.7-20.9-8.7-7.6 0-15.2 2.9-20.9 8.7-11.6 11.6-11.6 30.3 0 41.9l29.6 29.6c29.2 29.2 29.2 76.7 0 106-28.3 28.3-77.6 28.4-106 0l-29.6-29.6c-11.6-11.6-30.3-11.6-41.9 0-11.6 11.6-11.6 30.3 0 41.9l29.6 29.6c25.3 25.3 59 39.3 94.9 39.3s69.5-14 94.9-39.3c52.2-52.4 52.2-137.6-0.1-189.9z"  horiz-adv-x="1024" />
      
      <glyph glyph-name="telegram" unicode="&#58888;" d="M512 832C264.6 832 64 631.4 64 384s200.6-448 448-448 448 200.6 448 448S759.4 832 512 832z m213.9-302.3l-74.5-350.5c-5.2-24.9-20.2-30.9-41-19.5l-113.3 83.7-54.5-52.8c-6.3-6.3-11.5-11.5-22.7-11.5l7.7 115.8 210.2 189.4c9.3 8.5-1.9 12.6-14.2 5.2l-259.5-164-112.2 35.6c-24.1 6.8-24.4 23.5 5.5 35.6l437.1 168.6c19.9 9 39.1-5 31.4-35.6z"  horiz-adv-x="1024" />
      
      <glyph glyph-name="twitter" unicode="&#58887;" d="M383.7 588.4c-1.2 1.6-2.5 2.3-4.5 2.3-15.3-0.1-30.6 0-45.9-0.1-0.8 0-1.6-0.1-2.8-0.1 1-1.3 1.7-2.3 2.5-3.2 16.1-21.1 32.3-42.2 48.4-63.3 87.1-114 174.2-227.9 261.3-341.8 1.1-1.5 2.3-2 4.1-2 14.1 0.1 28.1 0 42.2 0h3.2c-1.2 1.7-2 2.7-2.8 3.7-50.7 67.2-101.4 134.3-152.2 201.4C486 453 434.9 520.7 383.7 588.4zM512 832C264.6 832 64 631.4 64 384s200.6-448 448-448 448 200.6 448 448S759.4 832 512 832z m241.8-669.4c-48.4 0-96.7 0-145.1-0.1-2.1 0-3.4 0.5-4.7 2.3-38.2 50-76.4 100-114.7 150-0.6 0.8-1.2 1.6-2 2.5-10.7-12.2-21.2-24.2-31.8-36.3-31.4-35.8-62.8-71.8-94.2-107.6-2.8-3.2-5.5-6.4-8.4-9.5-0.6-0.6-1.6-1.2-2.4-1.2-24.2-0.1-48.3-0.1-72.5 0-0.3 0-0.5 0.1-1.2 0.2 58.6 66.8 117 133.6 175.4 200.3-61.7 80.7-123.2 161.2-185.1 242.2h152.6c1.7 0 2.9-0.5 4-1.9 34.6-45.9 69.3-91.8 104.1-137.6 0.4-0.6 1-1.2 1.6-1.9 3.2 3.6 6.4 7.2 9.5 10.8 37.5 42.9 75.1 85.8 112.5 128.7 1.2 1.4 2.4 1.9 4.2 1.9 23.2-0.1 46.5 0 69.7 0h2.9L563.9 417.8c64.2-84.9 128.5-169.8 193-255.2h-3.1z"  horiz-adv-x="1024" />
      
      <glyph glyph-name="opensea" unicode="&#58886;" d="M512 832C264.6 832 64 631.4 64 384s200.6-448 448-448 448 200.6 448 448S759.4 832 512 832zM310.5 330.6l1.7 2.7 102.9 161c1 1.6 3.2 2.2 4.8 1.1 0.6-0.3 1-0.9 1.3-1.6 17.1-38.5 32-86.4 25.1-116.2-2.9-12.3-11.1-28.9-20.3-44.3-1.2-2.3-2.5-4.4-3.9-6.6-0.7-1-1.7-1.6-2.9-1.6H313.5c-1.9 0-3.6 1.6-3.6 3.5 0 0.7 0.2 1.4 0.6 2z m467.7-41.3c-0.1-1.6-1-3-2.5-3.6-8.7-3.7-38.5-17.4-50.8-34.6-31.6-43.9-55.7-106.8-109.6-106.8H390.2c-79.8 0-144.4 64.9-144.4 144.9v2.6c0 2.2 1.7 3.9 3.9 3.9h125.4c2.5 0 4.3-2.3 4.1-4.8-0.9-8.1 0.6-16.5 4.5-24.1 7.4-15.2 22.9-24.6 39.6-24.6h62.1v48.5H424c-2.2 0.1-3.9 1.8-3.9 4.1 0 0.8 0.3 1.6 0.7 2.2 0.7 1 1.5 2.1 2.3 3.3 5.8 8.2 14.1 21 22.3 35.7 5.6 9.9 11.1 20.4 15.5 30.9 0.9 1.9 1.6 3.9 2.3 5.8 1.2 3.4 2.4 6.5 3.3 9.7 0.9 2.7 1.6 5.5 2.3 8.1 2.1 8.9 2.9 18.4 2.9 28.3 0 3.9-0.2 7.9-0.5 11.8-0.3 4.2-0.6 8.5-1.2 12.6-0.4 3.8-1 7.5-1.7 11.3-1 5.6-2.2 11.3-3.6 16.9l-0.5 2.2c-1 3.9-1.9 7.5-3.2 11.4-3.5 11.8-7.4 23.5-11.8 35-1.6 4.4-3.3 8.6-5.1 12.8-2.6 6.3-5.3 12.1-7.7 17.6-1.1 2.3-2.3 4.7-3.4 7-1.2 2.6-2.4 5.2-3.6 7.7-0.9 1.9-1.9 3.6-2.6 5.5l-7.6 14c-0.7 1.2-0.3 2.7 1 3.4 0.5 0.3 1.2 0.4 1.8 0.3l47.5-12.8h0.2l0.2-0.1 6.2-1.7 6.8-1.9 2.5-0.7v28.2c0 13.6 10.9 24.7 24.4 24.7 6.8 0 12.8-2.8 17.2-7.3 4.6-4.7 7.1-10.9 7.1-17.4v-41.8l5-1.4c0.4-0.2 0.8-0.3 1.2-0.6 1.2-1 3-2.3 5.3-4 1.8-1.4 3.6-3.1 6-4.9 4.6-3.6 10-8.4 16-13.9 1.6-1.4 3.1-2.8 4.6-4.2 7.7-7.2 16.4-15.6 24.6-24.9 2.3-2.6 4.6-5.3 6.9-8.1 2.3-2.9 4.8-5.6 6.8-8.4 2.8-3.7 5.8-7.6 8.4-11.6 1.2-1.9 2.7-3.9 3.9-5.8 3.4-5.1 6.3-10.4 9.2-15.7 1.2-2.4 2.4-5.1 3.5-7.7 3.2-7 5.6-14.2 7.3-21.4 0.5-1.6 0.9-3.2 1-4.8v-0.3c0.5-2.2 0.7-4.4 0.9-6.7 1-10.7-0.3-21.4-3.9-31.4-1-3-2.2-6.1-3.6-9.1-2.7-6.1-5.8-12.3-9.5-18.1-1.2-2.2-2.6-4.4-4.1-6.5-1.6-2.3-3.1-4.4-4.6-6.5-1.9-2.7-4-5.5-6.1-8-1.8-2.6-3.8-5.1-6-7.5-2.9-3.6-5.8-6.8-8.7-10-1.8-2.2-3.6-4.2-5.6-6.1-1.9-2.2-3.9-4-5.6-5.8-2.4-2.4-4.9-4.8-7.5-7.2l-4.8-4.5c-0.7-0.6-1.6-1-2.6-1h-37.8v-48.5h47.5c10.7 0 20.8 3.8 28.9 10.7 2.8 2.4 15 13 29.4 28.9 0.5 0.5 1.1 1 1.8 1.1l131.4 38c2.1 0.6 4.2-0.6 4.8-2.7 0.1-0.3 0.2-0.7 0.2-1v-28.6z"  horiz-adv-x="1024" />
      
      <glyph glyph-name="copy" unicode="&#59183;" d="M878.272-85.312H375.36a104.64 104.64 0 0 0-104.64 104.64V520.64c0 57.792 46.848 104.64 104.64 104.64h502.912c57.792 0 104.64-46.848 104.64-104.64v-502.912c-1.6-56.192-48.448-103.04-104.64-103.04z m-502.912 616.96a10.688 10.688 0 0 1-10.944-11.008v-502.912c0-6.208 4.672-10.88 10.88-10.88h502.976c6.208 0 10.88 4.672 10.88 10.88V520.64a10.688 10.688 0 0 1-10.88 10.944H375.36zM192.64 142.72h-45.312a104.64 104.64 0 0 0-104.64 104.64V748.672c0 57.792 46.848 104.64 104.64 104.64h502.912c57.792 0 104.64-46.848 104.64-104.64v-49.92a46.016 46.016 0 0 0-46.848-46.912 46.08 46.08 0 0 0-46.848 46.848v49.984a10.688 10.688 0 0 1-10.944 10.944H147.328a10.688 10.688 0 0 1-10.944-10.88v-502.976c0-6.208 4.672-10.88 10.88-10.88h45.312a46.08 46.08 0 0 0 46.848-46.912c0-26.496-21.824-45.248-46.848-45.248z"  horiz-adv-x="1024" />
      
      <glyph glyph-name="a-1" unicode="&#59090;" d="M512 384m-512 0a512 512 0 1 1 1024 0 512 512 0 1 1-1024 0ZM213.248 340.99199999999996m45.254834 45.254834l-0.045255-0.045255q45.254834 45.254834 90.509668 0l135.673992-135.673992q45.254834-45.254834 0-90.509668l0.045255 0.045255q-45.254834-45.254834-90.509668 0l-135.673992 135.673992q-45.254834 45.254834 0 90.509668ZM710.994745 567.533255m45.254834-45.254834l-0.045255 0.045255q45.254834-45.254834 0-90.509668l-271.393239-271.39324q-45.254834-45.254834-90.509668 0l0.045255-0.045255q-45.254834 45.254834 0 90.509668l271.393239 271.39324q45.254834 45.254834 90.509668 0Z"  horiz-adv-x="1024" />
      
      <glyph glyph-name="a-2" unicode="&#59091;" d="M512 384m-512 0a512 512 0 1 1 1024 0 512 512 0 1 1-1024 0ZM306.514745 519.4427450000001m45.254834 45.254834l0 0q45.254834 45.254834 90.509668 0l271.529004-271.529004q45.254834-45.254834 0-90.509668l0 0q-45.254834-45.254834-90.509668 0l-271.529004 271.529004q-45.254834 45.254834 0 90.509668ZM668.434745 610.514745m45.254834-45.254834l0 0q45.254834-45.254834 0-90.509668l-271.529004-271.529004q-45.254834-45.254834-90.509668 0l0 0q-45.254834 45.254834 0 90.509668l271.529004 271.529004q45.254834 45.254834 90.509668 0Z"  horiz-adv-x="1024" />
      
      <glyph glyph-name="Token" unicode="&#59086;" d="M518.729143-71.241143c257.024 0 465.408 197.851429 465.408 441.929143 0 244.150857 24.429714 249.344-465.408 249.344S53.394286 614.838857 53.394286 370.688c0-244.077714 208.384-441.929143 465.408-441.929143zM53.174857 454.070857c0-117.248 49.005714-229.668571 136.265143-312.539428 87.259429-82.870857 205.677714-129.462857 329.142857-129.462858 123.392 0 241.737143 46.592 328.996572 129.462858 87.332571 82.944 136.338286 195.291429 136.338285 312.539428 0 117.174857-49.005714 229.668571-136.338285 312.466286C760.393143 849.408 641.974857 896 518.582857 896 395.117714 896 276.699429 849.408 189.44 766.537143 102.180571 683.666286 53.174857 571.245714 53.174857 454.070857zM109.129143 468.260571c0-98.889143 43.300571-193.755429 120.32-263.68 76.946286-69.924571 181.394286-109.202286 290.377143-109.202285 108.836571 0 213.284571 39.277714 290.377143 109.202285 76.946286 69.924571 120.246857 164.790857 120.246857 263.68 0 98.889143-43.300571 193.755429-120.32 263.68S628.736 841.142857 519.753143 841.142857c-108.909714 0-213.357714-39.277714-290.377143-109.202286C152.502857 661.942857 109.202286 567.149714 109.202286 468.260571zM135.460571 467.309714c0-91.574857 40.374857-179.419429 112.201143-244.150857 71.899429-64.731429 169.398857-101.083429 270.994286-101.083428 101.668571 0 199.168 36.352 271.067429 101.083428 71.826286 64.731429 112.201143 152.576 112.201142 244.150857 0 45.348571-9.874286 90.258286-29.110857 132.096a345.307429 345.307429 0 0 1-83.090285 112.054857 388.534857 388.534857 0 0 1-124.342858 74.825143 420.132571 420.132571 0 0 1-146.651428 26.331429c-50.395429 0-100.205714-8.996571-146.724572-26.331429a388.534857 388.534857 0 0 1-124.342857-74.825143A345.234286 345.234286 0 0 1 164.571429 599.405714a315.830857 315.830857 0 0 1-29.110858-132.096zM616.082286 428.690286l121.563428 18.066285 0.365715-53.028571c-8.192-32.402286-21.065143-59.538286-38.765715-81.188571a166.838857 166.838857 0 0 0-65.536-49.298286c-26.112-11.044571-59.318857-16.603429-99.620571-16.603429-49.005714 0-88.941714 6.729143-119.954286 20.260572-31.085714 13.458286-57.782857 37.229714-80.384 71.241143-22.528 33.938286-33.718857 77.458286-33.718857 130.486857 0 70.729143 19.748571 125.074286 59.392 162.962285 39.643429 38.034286 95.670857 57.051429 168.228571 57.051429 56.685714 0 101.302857-10.971429 133.705143-32.694857 12.8-8.557714 36.571429-23.771429 71.387429-45.568-0.438857-21.357714-0.146286-39.497143 0.950857-54.637714l-122.88-25.965715a97.28 97.28 0 0 1-13.458286 28.525715 78.994286 78.994286 0 0 1-28.525714 23.405714 85.796571 85.796571 0 0 1-37.814857 8.118857c-31.524571 0-55.734857-12.068571-72.484572-36.132571-12.726857-17.846857-19.017143-45.933714-19.017142-84.114286 0-47.469714 7.533714-79.945143 22.674285-97.499429 15.140571-17.554286 36.425143-26.331429 63.853715-26.331428 26.624 0 46.811429 7.021714 60.416 21.211428 13.604571 14.189714 23.405714 34.742857 29.622857 61.732572zM616.082286 485.302857l121.929143-34.962286c-8.192-32.475429-21.065143-59.538286-38.765715-81.261714a166.838857 166.838857 0 0 0-65.536-49.298286c-26.112-10.971429-59.318857-16.603429-99.620571-16.603428-49.005714 0-88.941714 6.802286-119.954286 20.260571-31.085714 13.531429-57.782857 37.302857-80.384 71.241143-22.528 34.011429-33.718857 77.531429-33.718857 130.486857 0 70.729143 19.748571 125.074286 59.392 163.035429 39.643429 38.034286 95.670857 56.978286 168.228571 56.978286 56.685714 0 101.302857-10.971429 133.705143-32.621715 32.475429-21.796571 56.612571-55.222857 72.411429-100.205714l-122.88-26.038857a97.28 97.28 0 0 1-13.531429 28.598857 78.994286 78.994286 0 0 1-28.525714 23.332571 85.723429 85.723429 0 0 1-37.814857 8.118858c-31.524571 0-55.734857-11.995429-72.484572-36.059429-12.726857-17.92-19.017143-45.933714-19.017142-84.260571 0-47.396571 7.533714-79.872 22.674285-97.426286 15.140571-17.554286 36.425143-26.331429 63.853715-26.331429 26.624 0 46.811429 7.094857 60.416 21.211429 13.604571 14.189714 23.405714 34.816 29.622857 61.805714z"  horiz-adv-x="1024" />
      
      <glyph glyph-name="ETH" unicode="&#59085;" d="M806.851765 336.715294l-296.056471-421.647059V158.117647l296.056471 178.597647zM510.795294 222.569412l296.056471 175.706353L510.795294 896v-673.430588zM510.795294 222.328471l296.056471 175.706353L510.795294 537.419294v-315.030588zM215.04 336.715294l296.056471-421.647059V158.117647L215.04 336.715294z m296.056471-114.206118L215.04 398.215529 511.096471 896v-673.430588zM511.096471 222.328471L215.04 398.034824l296.056471 139.38447v-315.030588z"  horiz-adv-x="1024" />
      
      <glyph glyph-name="icon3" unicode="&#58923;" d="M511.998465-24.591839c510.790452 300.467259 458.235492 560.859801 458.235492 560.859801S962.7014 797.70837 742.328317 797.70837c-220.370013 0-230.329852-161.275103-230.329852-161.275103S501.950621 797.70837 281.638937 797.70837c-220.342384 0-227.870848-261.440407-227.870848-261.440407S1.177314 275.87542 511.998465-24.591839z"  horiz-adv-x="1024" />
      
      <glyph glyph-name="shoucang" unicode="&#58939;" d="M702.131071 771.878788c-93.893818 0-161.150707-84.605414-190.140768-129.353697C482.974384 687.273374 415.747232 771.878788 321.858586 771.878788 187.126303 771.878788 77.550545 650.46497 77.550545 501.242828c0-69.772929 47.327677-169.808162 104.782869-222.157576 79.475071-102.110384 302.898424-285.923556 330.484364-285.923556 28.070788 0 246.702545 180.236929 327.611475 284.696566 58.46497 53.272566 106.020202 153.439677 106.020202 223.384566C946.449455 650.46497 836.858182 771.878788 702.131071 771.878788M888.84299 501.242828c0-55.802828-40.468687-139.081697-88.362667-181.838869-1.313616-1.197253-2.505697-2.504404-3.697778-3.944727C725.586101 222.696727 582.242909 107.636364 512.970343 57.241859 461.474263 94.934626 306.369293 212.37398 226.742949 315.823838c-1.071838 1.408-2.323394 2.721616-3.63701 3.943434-47.706505 42.702869-87.964444 125.763232-87.964444 181.475556 0 117.474263 83.752081 213.060525 186.717091 213.060525 66.368646 0 130.267798-71.83903 164.141253-143.066505 4.490343-9.438384 14.449778-15.317333 25.995636-15.317333 11.544566 0 21.500121 5.878949 26.020202 15.317333 33.842424 71.227475 97.711838 143.066505 164.115394 143.066505C805.090909 714.303354 888.84299 618.717091 888.84299 501.242828"  horiz-adv-x="1024" />
      
      <glyph glyph-name="qiehuanliebiao2" unicode="&#58980;" d="M332.8 793.6a25.6 25.6 0 0 0 25.6-25.6v-204.8a25.6 25.6 0 0 0-25.6-25.6H128a25.6 25.6 0 0 0-25.6 25.6V768a25.6 25.6 0 0 0 25.6 25.6h204.8m0 102.4H128a128 128 0 0 1-128-128v-204.8a128 128 0 0 1 128-128h204.8a128 128 0 0 1 128 128V768a128 128 0 0 1-128 128zM332.8 230.4a25.6 25.6 0 0 0 25.6-25.6v-204.8a25.6 25.6 0 0 0-25.6-25.6H128a25.6 25.6 0 0 0-25.6 25.6v204.8a25.6 25.6 0 0 0 25.6 25.6h204.8m0 102.4H128a128 128 0 0 1-128-128v-204.8a128 128 0 0 1 128-128h204.8a128 128 0 0 1 128 128v204.8a128 128 0 0 1-128 128zM563.2 810.24m51.2 0l358.4 0q51.2 0 51.2-51.2l0 0q0-51.2-51.2-51.2l-358.4 0q-51.2 0-51.2 51.2l0 0q0 51.2 51.2 51.2ZM563.2 591.616m51.2 0l358.4 0q51.2 0 51.2-51.2l0 0q0-51.2-51.2-51.2l-358.4 0q-51.2 0-51.2 51.2l0 0q0 51.2 51.2 51.2ZM563.2 279.04m51.2 0l358.4 0q51.2 0 51.2-51.2l0 0q0-51.2-51.2-51.2l-358.4 0q-51.2 0-51.2 51.2l0 0q0 51.2 51.2 51.2ZM563.2 60.416m51.2 0l358.4 0q51.2 0 51.2-51.2l0 0q0-51.2-51.2-51.2l-358.4 0q-51.2 0-51.2 51.2l0 0q0 51.2 51.2 51.2Z"  horiz-adv-x="1024" />
      
      <glyph glyph-name="qiehuanliebiao1" unicode="&#58899;" d="M102.4 793.6v-332.8h256V793.6H102.4M76.8 896h307.2a76.8 76.8 0 0 0 76.8-76.8v-384a76.8 76.8 0 0 0-76.8-76.8H76.8a76.8 76.8 0 0 0-76.8 76.8V819.2a76.8 76.8 0 0 0 76.8 76.8zM665.6 307.2v-332.8h256V307.2H665.6m-25.6 102.4h307.2a76.8 76.8 0 0 0 76.8-76.8v-384a76.8 76.8 0 0 0-76.8-76.8H640a76.8 76.8 0 0 0-76.8 76.8V332.8a76.8 76.8 0 0 0 76.8 76.8zM102.4 153.6v-179.2h256v179.2H102.4m-25.6 102.4h307.2a76.8 76.8 0 0 0 76.8-76.8v-230.4a76.8 76.8 0 0 0-76.8-76.8H76.8a76.8 76.8 0 0 0-76.8 76.8v230.4a76.8 76.8 0 0 0 76.8 76.8zM665.6 793.6v-179.2h256V793.6H665.6m-25.6 102.4h307.2a76.8 76.8 0 0 0 76.8-76.8v-230.4a76.8 76.8 0 0 0-76.8-76.8H640a76.8 76.8 0 0 0-76.8 76.8V819.2a76.8 76.8 0 0 0 76.8 76.8z"  horiz-adv-x="1024" />
      
      <glyph glyph-name="info" unicode="&#59453;" d="M512 798.47619c228.912762 0 414.47619-185.563429 414.47619-414.47619s-185.563429-414.47619-414.47619-414.47619S97.52381 155.08723799999996 97.52381 384 283.087238 798.47619 512 798.47619z m0-73.142857C323.486476 725.333333 170.666667 572.513524 170.666667 384s152.81981-341.333333 341.333333-341.333333 341.333333 152.81981 341.333333 341.333333S700.513524 725.333333 512 725.333333z m36.571429-268.190476v-292.571428h-73.142858V457.142857h73.142858z m0 121.904762v-73.142857h-73.142858v73.142857h73.142858z"  horiz-adv-x="1024" />
      
      <glyph glyph-name="check" unicode="&#58949;" d="M887.904 597.792c-12.864 12.064-33.152 11.488-45.216-1.408L415.936 142.016l-233.12 229.696C170.208 384.128 149.952 384 137.536 371.392c-12.416-12.576-12.256-32.864 0.352-45.248l256.48-252.672c0.096-0.096 0.224-0.128 0.32-0.224 0.096-0.096 0.128-0.224 0.224-0.32 2.016-1.92 4.448-3.008 6.784-4.288 1.152-0.672 2.144-1.664 3.36-2.144 3.776-1.472 7.776-2.24 11.744-2.24 4.192 0 8.384 0.832 12.288 2.496 1.312 0.544 2.336 1.664 3.552 2.368 2.4 1.408 4.896 2.592 6.944 4.672 0.096 0.096 0.128 0.256 0.224 0.352 0.064 0.096 0.192 0.128 0.288 0.224l449.184 478.208C901.44 565.408 900.768 585.664 887.904 597.792z"  horiz-adv-x="1024" />
      
      <glyph glyph-name="guanbi" unicode="&#58882;" d="M571.733333 384l354.133334 354.133333c17.066667 17.066667 17.066667 42.666667 0 59.733334s-42.666667 17.066667-59.733334 0L512 443.733333 157.866667 797.866667c-17.066667 17.066667-42.666667 17.066667-59.733334 0s-17.066667-42.666667 0-59.733334l354.133334-354.133333-354.133334-354.133333c-17.066667-17.066667-17.066667-42.666667 0-59.733334 8.533333-8.533333 17.066667-12.8 29.866667-12.8s21.333333 4.266667 29.866667 12.8l354.133333 354.133334 354.133333-354.133334c8.533333-8.533333 21.333333-12.8 29.866667-12.8s21.333333 4.266667 29.866667 12.8c17.066667 17.066667 17.066667 42.666667 0 59.733334L571.733333 384z"  horiz-adv-x="1024" />
      
      <glyph glyph-name="qianbao" unicode="&#58924;" d="M816.5 720H206.8C145.1 720 95 669.8 95 608.2V161c0-61.6 50.1-111.8 111.8-111.8h609.7c61.6 0 111.8 50.2 111.8 111.8V608.2c0 61.6-50.2 111.8-111.8 111.8z m50.8-406.6H643.7c-39.2 0-71.1 31.9-71.1 71.1 0 39.2 31.9 71.1 71.1 71.1h223.6v-142.2z m0 203.3H643.7c-72.8 0-132.1-59.3-132.1-132.1 0-72.9 59.3-132.1 132.1-132.1h223.6V161c0-28-22.8-50.8-50.8-50.8H206.8c-28 0-50.8 22.8-50.8 50.8V608.2c0 28 22.8 50.8 50.8 50.8h609.7c28 0 50.8-22.8 50.8-50.8v-91.5z m-254-132.1c0-22.5 18.2-40.7 40.6-40.7 22.4 0 40.6 18.2 40.6 40.7 0 22.5-18.2 40.7-40.6 40.7-22.4-0.1-40.6-18.3-40.6-40.7z m0 0"  horiz-adv-x="1024" />
      
      <glyph glyph-name="yonghu-fang-L" unicode="&#58951;" d="M511.616 629.312a138.752 138.752 0 1 1 138.88-138.624 138.752 138.752 0 0 1-138.88 138.624zM436.8 490.688c0 41.152 33.472 74.624 74.816 74.624a74.752 74.752 0 1 0-74.816-74.624zM343.104 148.544c87.488 91.648 250.048 95.168 337.344 0.448a32 32 0 0 1 47.04 43.328c-113.792 123.52-319.168 117.184-430.656 0.448a32 32 0 0 1 46.272-44.16zM514.432 821.312h-4.864c-93.44 0-166.912 0-224.256-7.68-58.688-7.936-105.344-24.448-141.952-61.056-36.608-36.608-53.12-83.2-60.992-141.952-7.68-57.28-7.68-130.688-7.68-224.192v-4.864c0-93.44 0-166.912 7.68-224.192 7.872-58.752 24.384-105.344 60.992-141.952 36.608-36.672 83.2-53.12 141.952-61.056 57.344-7.68 130.752-7.68 224.256-7.68h4.864c93.44 0 166.848 0 224.192 7.68 58.752 7.872 105.344 24.384 141.952 61.056 36.608 36.608 53.12 83.2 61.056 141.952 7.68 57.28 7.68 130.688 7.68 224.192v4.864c0 93.44 0 166.912-7.68 224.192-7.936 58.752-24.448 105.344-61.056 141.952-36.608 36.608-83.2 53.12-141.952 61.056-57.344 7.68-130.752 7.68-224.192 7.68z m-325.76-113.92c22.72 22.72 53.568 35.84 105.216 42.816 52.48 7.04 121.6 7.104 218.112 7.104 96.448 0 165.504 0 218.112-7.104 51.648-6.976 82.496-20.096 105.216-42.88 22.72-22.72 35.904-53.568 42.88-105.216 7.04-52.544 7.104-121.664 7.104-218.112s-0.064-165.568-7.104-218.112c-6.976-51.648-20.16-82.496-42.88-105.216-22.72-22.784-53.568-35.968-105.216-42.88-52.608-7.04-121.664-7.104-218.112-7.104s-165.568 0-218.112 7.104c-51.648 6.912-82.56 20.096-105.28 42.88-22.72 22.72-35.84 53.568-42.88 105.216-7.04 52.544-7.04 121.664-7.04 218.112s0 165.568 7.04 218.112c7.04 51.648 20.16 82.496 42.88 105.216z"  horiz-adv-x="1024" />
      
      <glyph glyph-name="tianjia" unicode="&#58894;" d="M510.125-71.584c-250.936 0-454.36 203.464-454.36 454.431S259.19 837.264 510.127 837.264c250.937 0 454.36-203.448 454.36-454.417s-203.423-454.431-454.36-454.431z m0 852.05c-219.57 0-397.562-178.02-397.562-397.619s177.991-397.619 397.562-397.619 397.563 178.02 397.563 397.62-177.992 397.617-397.562 397.617zM680.51 354.44H538.525v-142.007c0-15.678-12.715-28.396-28.398-28.396s-28.395 12.719-28.395 28.395V354.441h-141.99c-15.684 0-28.398 12.718-28.398 28.406 0 15.679 12.717 28.397 28.399 28.397h141.989V553.256c0 15.676 12.714 28.389 28.395 28.389 15.686 0 28.4-12.71 28.4-28.39v-142.012h141.982c15.687 0 28.4-12.717 28.4-28.397 0-15.69-12.713-28.405-28.4-28.405z"  horiz-adv-x="1024" />
      
      <glyph glyph-name="sousuo" unicode="&#58927;" d="M793.6 142.222222c2.844444-2.844444 8.533333-5.688889 11.377778-11.377778l167.822222-190.577777c2.844444-2.844444 2.844444-11.377778 0-14.222223L938.666667-105.244444c-2.844444-2.844444-11.377778-2.844444-14.222223 0l-173.511111 193.422222c-2.844444 5.688889-5.688889 8.533333-8.533333 14.222222-68.266667-45.511111-156.444444-73.955556-247.466667-73.955556-244.622222 0-426.666667 187.733333-426.666666 426.666667S258.844444 876.088889 494.933333 881.777778c230.4 5.688889 426.666667-187.733333 426.666667-426.666667 0-125.155556-51.2-244.622222-128-312.888889z m-298.666667 682.666667c-201.955556 0-369.777778-167.822222-369.777777-369.777778s167.822222-369.777778 369.777777-369.777778c213.333333 0 369.777778 162.133333 369.777778 369.777778 0 201.955556-164.977778 369.777778-369.777778 369.777778z"  horiz-adv-x="1024" />
      
      <glyph glyph-name="a-SEMIOSlogodange" unicode="&#59069;" d="M431.264828 706.584339l14.501537-10.833501c90.50665-94.259989 127.101704-216.584716 135.290808-333.961861a837.890263 837.890263 0 0 0-8.572968-185.61967l-1.194244-0.682425c-63.380246-38.301118-115.799036-58.987133-157.256371-66.792373-41.585289-7.762587-70.588363-2.303185-89.056496 9.596606-17.956315 11.558578-28.576558 30.922395-30.069363 57.238418-1.578108 26.699888 6.269782 60.096074 25.37769 96.776432 71.05753 136.69831 83.895655 248.232188 54.59402 345.691045-22.349427 74.384353-68.796996 138.87354-129.106328 199.140221 65.854037-30.453227 127.954736-67.602752 185.534367-110.552892zM186.700676 828.73846c6.269782-106.202431 28.491255-208.097052 64.275929-303.252724l6.610995-17.657753-12.113048-14.416234c-98.525147-117.078583-165.701383-236.92952-195.557489-338.354974-30.495879-103.47273-19.662378-177.302613 19.960939-215.816988 35.40081-34.505127 98.141283-45.38128 185.534367-23.074504 86.156189 21.965563 188.30672 74.640263 291.523541 153.929548l2.004624 1.535456c5.67266 18.510785 11.08941 39.665968 15.95169 62.825776-55.66031-31.263607-104.069852-49.731741-144.930064-57.366373-46.362266-8.700922-84.663384-3.753339-112.429561 14.117672-28.192694 18.169573-42.736882 47.897723-44.784158 82.445502-2.004624 34.121263 8.1038 73.360715 29.003073 113.49585 68.370481 131.58012 78.564208 234.285122 52.290836 321.592904-24.3114 81.037999-80.824742 151.199846-157.384325 219.996842zM601.572582 155.014124a808.673932 808.673932 0 0 0-18.766695-82.317547l3.540081-2.729701a1039.63223 1039.63223 0 0 1 251.644314-144.844761c-22.647988 84.578081-61.119712 153.630986-105.178793 195.216275-23.671626 22.349427-48.36689 36.253842-72.507683 41.116122a96.051355 96.051355 0 0 1-58.731224-6.397737z m238.592931-138.574979a1032.978584 1032.978584 0 0 1-66.579114 248.01893l-7.165466 17.57245 11.942442 14.757446c91.700894 113.794412 153.545683 228.868371 180.20292 325.858061 27.169056 98.823708 15.738433 169.156161-22.605336 206.518944C901.114619 862.987678 839.994907 874.11974 754.905007 853.348421c-82.317547-20.131545-179.904359-68.754345-279.282537-142.370969 92.425971-100.359165 129.191632-227.674127 137.466038-346.927941 4.265158-60.863803 1.108941-119.978891-5.971221-172.994803a127.613523 127.613523 0 0 0 59.498952 1.919321c31.562168-6.355085 61.460925-23.970187 88.246117-49.219922 33.140277-31.263607 62.39926-75.152082 85.260505-127.314962z m41.499986-107.737888c0.426516-11.387972 0.597122-22.775943 0.639774-34.249218a1071.151747 1071.151747 0 0 0-315.706986 170.094496c-211.125314-162.075999-424.383208-220.636616-519.155015-128.381252-105.90387 103.003562-27.723526 359.040989 173.378667 597.975133A1069.061819 1069.061819 0 0 0 152.664716 888.877186a1070.767883 1070.767883 0 0 0 297.878626-156.531293c207.329324 155.592959 414.743951 210.485541 507.809695 119.850936 102.619698-99.804694 32.4152-343.259905-154.953185-575.625706a1068.336743 1068.336743 0 0 0 78.265647-367.869866z"  horiz-adv-x="1024" />
      
      <glyph glyph-name="a-SEMIOSlogozuhe" unicode="&#59068;" d="M1632.755947-15.246409c-86.037388 0-149.00401 16.145288-188.899865 48.47835-39.47098 32.290575-59.185226 83.53062-59.185226 153.635159 0 7.010454 2.846669 12.831255 8.540007 17.504891a32.630476 32.630476 0 0 0 21.41375 7.010453c8.540007 0 15.677924-2.336818 21.371263-7.010453 5.693338-4.673636 8.540007-10.494437 8.540007-17.504891 0-56.508507 13.80847-96.191924 41.340434-119.177716 28.041815-22.560915 77.030017-33.862617 146.87963-33.862616h205.300079c69.892101 0 118.582889 11.301701 146.157341 33.862616 28.041815 22.943304 42.062723 62.711696 42.062724 119.177716 0 56.848408-14.020908 96.574313-42.062724 119.135228-27.574452 22.603403-76.26524 33.862617-146.157341 33.862616H1637.047195c-81.746141 0-141.39873 15.21056-178.957768 45.589194-37.559038 30.761022-56.296069 79.45181-56.296069 146.029878 0 66.578068 18.524593 115.056418 55.57378 145.435052 37.559038 30.761022 96.956701 46.141533 178.235478 46.141533h209.591327c81.278777 0 140.464003-15.21056 177.513189-45.589194 37.559038-30.336146 56.338556-78.602058 56.338557-144.840226a21.753651 21.753651 0 0 0-8.582495-17.50489 32.630476 32.630476 0 0 0-21.371263-7.010454 32.672964 32.672964 0 0 0-21.371262 7.010454 21.753651 21.753651 0 0 0-8.582495 17.50489c0 52.174772-13.043693 88.799082-39.216054 109.830444-25.66251 20.988874-70.529415 31.525799-134.685689 31.525799h-209.633815c-64.156275 0-109.320593-10.706875-135.450466-32.120625-25.66251-21.031362-38.493765-57.825622-38.493764-110.382783 0-52.599648 13.086181-89.563859 39.216054-110.977609 26.129873-21.031362 71.506629-31.568286 136.172755-31.568286h201.008831c86.504752 0 149.513861-16.145288 188.942354-48.435863 39.428492-32.333063 59.185226-83.573108 59.185225-153.635158 0-70.104539-19.756734-121.302096-59.185225-153.635159-39.428492-32.290575-102.395114-48.435863-188.942354-48.435863H1632.798435zM2358.953992-16.393575c-19.969172 0-29.953757 8.157619-29.953758 24.515345V698.545256c0 16.315238 9.984586 24.515345 29.953758 24.515345h541.844352c19.969172 0 29.91127-8.200107 29.911269-24.557832 0-16.357726-9.984586-24.515345-29.911269-24.515345H2388.907749v-290.870104h343.639702c19.969172 0 29.91127-8.200107 29.91127-24.557832 0-16.357726-9.942098-24.515345-29.91127-24.515345h-343.639702v-301.407028h511.890595c19.969172 0 29.91127-8.157619 29.911269-24.515345 0-16.357726-9.984586-24.515345-29.911269-24.515345H2358.911504zM3138.728899-16.393575c-19.969172 0-29.953757 8.157619-29.953758 24.515345V698.545256c0 16.315238 9.984586 24.515345 29.953758 24.515345 15.677924 0 27.531964-5.4809 35.647096-16.357726l360.719716-454.44736-14.233346-1.147165 360.719717 455.594525c8.072644 10.876825 19.969172 16.357726 35.647096 16.357726 18.991957 0 28.466691-8.200107 28.466691-24.557832v-690.380999c0-16.357726-9.942098-24.515345-29.91127-24.515345s-29.91127 8.157619-29.911269 24.515345V649.472079l17.080015-5.778313-339.348455-426.448033c-8.072644-10.919313-19.969172-16.357726-35.647095-16.357726s-27.531964 5.438413-35.647096 16.315238L3153.004732 644.798443l15.720412-5.863288v-630.813385c0-16.357726-10.027073-24.515345-29.953758-24.515345zM4231.764874-16.223624a32.715451 32.715451 0 0 0-21.371262 6.967966 21.753651 21.753651 0 0 0-8.540008 17.547379V699.862372c0 7.010454 2.846669 12.831255 8.49752 17.504891a32.672964 32.672964 0 0 0 21.41375 7.010453 32.715451 32.715451 0 0 0 21.41375-7.010453c5.693338-4.673636 8.540007-10.494437 8.540008-17.504891v-691.570651a21.753651 21.753651 0 0 0-8.540008-17.547379 32.715451 32.715451 0 0 0-21.41375-7.010454zM4793.068547-16.436062c-101.205461 0-174.878958 18.694544-220.978004 56.083631-45.631681 37.771476-68.447522 98.146354-68.447522 181.082147v265.122619c0 83.743058 22.815841 144.287887 68.447522 181.676974 46.099045 37.813963 119.305178 56.253581 219.575913 55.488804h172.499652c101.247949 0 174.709008-18.864494 220.298202-56.635969 46.099045-37.389087 69.169811-97.551528 69.169811-180.487322v-265.207593c0-82.935794-23.070766-143.268184-69.169811-181.03966-45.589194-37.389087-119.050253-56.083631-220.298202-56.083631h-171.097561z m0 49.073177h171.097561c56.083631 0 100.780585 6.033239 134.048376 18.099717 33.735154 12.448867 57.995573 32.290575 72.738769 59.567614 15.168073 27.616939 22.773353 64.453688 22.773353 110.42527v265.122619c0 45.971582-7.60528 82.595893-22.773353 109.830444-14.743197 27.616939-39.003616 47.501136-72.738769 59.567614-33.26779 12.491354-77.964744 18.694544-134.048376 18.694543h-172.499652c-56.083631 0.424876-100.780585-5.438413-134.048376-17.504891-33.26779-12.066478-57.273284-31.950675-71.973992-59.567614-14.743197-27.659427-22.136039-64.666126-22.13604-110.977609v-265.207593c0-45.929095 7.392842-82.723356 22.13604-110.382783 15.21056-27.234551 39.428492-47.118747 72.696282-59.567614 33.735154-12.066478 78.644546-18.099717 134.728177-18.099717zM5729.197818-15.246409c-86.037388 0-149.00401 16.145288-188.942353 48.47835-39.428492 32.290575-59.142738 83.53062-59.142738 153.635159 0 7.010454 2.846669 12.831255 8.540007 17.504891a32.630476 32.630476 0 0 0 21.371263 7.010453c8.582495 0 15.720412-2.336818 21.41375-7.010453 5.693338-4.673636 8.540007-10.494437 8.540007-17.504891 0-56.508507 13.80847-96.191924 41.340434-119.177716 28.041815-22.560915 77.030017-33.862617 146.87963-33.862616h205.342567c69.849613 0 118.540402 11.301701 146.114853 33.862616 28.041815 22.943304 42.062723 62.711696 42.062724 119.177716 0 56.848408-14.020908 96.574313-42.062724 119.135228-27.574452 22.603403-76.26524 33.862617-146.114853 33.862616h-201.051319c-81.746141 0-141.39873 15.21056-178.957768 45.589194-37.559038 30.761022-56.296069 79.45181-56.296069 146.029878 0 66.578068 18.524593 115.056418 55.57378 145.435052 37.559038 30.761022 96.956701 46.141533 178.235479 46.141533h209.591326c81.278777 0 140.464003-15.21056 177.513189-45.589194 37.559038-30.336146 56.338556-78.602058 56.338557-144.840226a21.753651 21.753651 0 0 0-8.540008-17.50489 32.800427 32.800427 0 0 0-21.41375-7.010454 32.587989 32.587989 0 0 0-21.371262 7.010454 21.668676 21.668676 0 0 0-8.582495 17.50489c0 52.174772-13.043693 88.799082-39.173566 109.830444-25.66251 20.988874-70.61439 31.525799-134.770665 31.525799h-209.591326c-64.156275 0-109.320593-10.706875-135.450467-32.120625-25.66251-21.031362-38.493765-57.825622-38.493764-110.382783 0-52.599648 13.043693-89.563859 39.216054-110.977609 26.129873-21.031362 71.506629-31.568286 136.172755-31.568286h201.051319c86.462264 0 149.428886-16.145288 188.899866-48.435863 39.428492-32.333063 59.185226-83.573108 59.185225-153.635158 0-70.104539-19.756734-121.302096-59.185225-153.635159-39.47098-32.290575-102.437602-48.435863-188.899866-48.435863h-205.342567zM431.249131 706.490437l14.488272-10.834338c90.498586-94.279982 127.122897-216.644268 135.323003-334.037504a837.855455 837.855455 0 0 0-8.582495-185.670808l-1.189653-0.722289c-63.391498-38.281327-115.821195-59.057763-157.33158-66.790506-41.59536-7.775231-70.61439-2.29433-89.054007 9.559709-17.972254 11.599115-28.551667 30.930972-30.081221 57.273284-1.572041 26.7247 6.288165 60.119953 25.365097 96.829239 71.124241 136.725094 83.955496 248.255042 54.639053 345.764081-22.390965 74.438274-68.829911 138.934449-129.162302 199.26684A1040.521303 1040.521303 0 0 0 431.249131 706.490437zM186.52056 828.684772c6.288165-106.218998 28.509179-208.146748 64.283738-303.361458l6.628065-17.632353-12.108966-14.445784c-98.57123-117.095823-165.744124-236.995828-195.612906-338.456215-30.506096-103.499792-19.671758-177.343239 19.969172-215.921978 35.434658-34.457443 98.146354-45.376756 185.585833-23.070767 86.164851 22.008576 188.390015 74.693199 291.63488 154.017547l2.039405 1.529554c5.608363 18.482106 11.046776 39.64093 15.890362 62.881646-55.658755-31.313361-104.05213-49.795466-144.967688-57.443234-46.396458-8.66747-84.677785-3.738909-112.422188 14.148371-28.254253 18.184692-42.785012 47.926012-44.824417 82.425942-1.996917 34.202517 8.072644 73.418571 28.976543 113.569353 68.405035 131.626582 78.602058 234.404084 52.344722 321.673613-24.387882 81.066339-80.853901 151.255853-157.416555 220.085763z m415.018869-673.938297c-5.31095-30.421121-11.85404-58.208011-18.737032-82.340967l3.526471-2.761694a1040.011452 1040.011452 0 0 1 251.65405-144.882713c-22.603403 84.635297-61.097168 153.720134-105.156808 195.315493-23.665593 22.348477-48.350888 36.241922-72.526332 41.085508a96.106949 96.106949 0 0 1-58.760349-6.37314z m238.652844-138.594549a1033.85075 1033.85075 0 0 1-66.578068 248.042604l-7.180404 17.589866 11.896528 14.785685c91.773214 113.866766 153.635158 228.923184 180.31737 325.96486 27.192063 98.868643 15.720412 169.228107-22.64589 206.574707-34.797344 33.862617-95.894511 45.036855-180.997172 24.217932-82.425942-20.139122-180.019958-68.787423-279.398452-142.418433 92.453016-100.398197 129.204789-227.733531 137.532358-347.038709 4.24876-60.88473 1.06219-120.027468-6.033239-173.051992 19.756734 5.395925 39.768393 5.948264 59.567614 1.911942 31.568286-6.37314 61.479556-23.963006 88.246744-49.243127 33.140327-31.270873 62.456771-75.160563 85.315099-127.335335z m41.552872-107.791039c0.382388-11.386677 0.594826-22.815841 0.594826-34.287492a1071.53725 1071.53725 0 0 0-315.852812 170.162834c-211.12088-162.132678-424.451115-220.723078-519.283436-128.440012-105.921585 103.074916-27.659427 359.190163 173.476867 598.225396A1069.41287 1069.41287 0 0 0 152.530481 888.804725a1071.112374 1071.112374 0 0 0 298.00802-156.566803C657.835497 887.912486 865.344932 942.848951 958.520237 852.222902c102.607552-99.845858 32.375551-343.384776-155.079737-575.834431a1068.733069 1068.733069 0 0 0 78.347133-367.985096z"  horiz-adv-x="6208" />
      
    </font>
</defs>
</svg>
